<mxfile host="app.diagrams.net" modified="2023-05-05T14:57:36.628Z" agent="Mozilla/5.0 (Windows NT 10.0; Win64; x64) AppleWebKit/537.36 (KHTML, like Gecko) Chrome/112.0.0.0 Safari/537.36" etag="-11Iubw4iEqoal-VoAT_" version="21.2.9" type="device" pages="2">
  <diagram id="C5RBs43oDa-KdzZeNtuy" name="第1頁">
    <mxGraphModel dx="2068" dy="876" grid="1" gridSize="10" guides="1" tooltips="1" connect="1" arrows="1" fold="1" page="1" pageScale="1" pageWidth="827" pageHeight="1169" math="0" shadow="0">
      <root>
        <mxCell id="WIyWlLk6GJQsqaUBKTNV-0" />
        <mxCell id="WIyWlLk6GJQsqaUBKTNV-1" parent="WIyWlLk6GJQsqaUBKTNV-0" />
        <mxCell id="yvwUkNfyM7RfFsWCVgiy-0" value="ConnectionLine" style="swimlane;fontStyle=1;align=center;verticalAlign=top;childLayout=stackLayout;horizontal=1;startSize=26;horizontalStack=0;resizeParent=1;resizeParentMax=0;resizeLast=0;collapsible=1;marginBottom=0;whiteSpace=wrap;html=1;" vertex="1" parent="WIyWlLk6GJQsqaUBKTNV-1">
          <mxGeometry x="240" y="970" width="170" height="190" as="geometry" />
        </mxCell>
        <mxCell id="yvwUkNfyM7RfFsWCVgiy-1" value="- HeadorTail: int&lt;br&gt;- ObjectPorts:&amp;nbsp;Port[]" style="text;strokeColor=none;fillColor=none;align=left;verticalAlign=top;spacingLeft=4;spacingRight=4;overflow=hidden;rotatable=0;points=[[0,0.5],[1,0.5]];portConstraint=eastwest;whiteSpace=wrap;html=1;" vertex="1" parent="yvwUkNfyM7RfFsWCVgiy-0">
          <mxGeometry y="26" width="170" height="34" as="geometry" />
        </mxCell>
        <mxCell id="yvwUkNfyM7RfFsWCVgiy-2" value="" style="line;strokeWidth=1;fillColor=none;align=left;verticalAlign=middle;spacingTop=-1;spacingLeft=3;spacingRight=3;rotatable=0;labelPosition=right;points=[];portConstraint=eastwest;strokeColor=inherit;" vertex="1" parent="yvwUkNfyM7RfFsWCVgiy-0">
          <mxGeometry y="60" width="170" height="8" as="geometry" />
        </mxCell>
        <mxCell id="yvwUkNfyM7RfFsWCVgiy-3" value="+&amp;nbsp;inside(int,&amp;nbsp;int&lt;span style=&quot;background-color: initial;&quot;&gt;):&amp;nbsp;&lt;/span&gt;int&lt;br&gt;+&amp;nbsp;MoveLocation&lt;span style=&quot;background-color: initial;&quot;&gt;(int,&amp;nbsp;int&lt;/span&gt;&lt;span style=&quot;background-color: initial; border-color: var(--border-color);&quot;&gt;): void&lt;/span&gt;&lt;br&gt;+&amp;nbsp;SetPorts&lt;span style=&quot;background-color: initial;&quot;&gt;(Port, Port): void&lt;/span&gt;&lt;br&gt;+&amp;nbsp;ResetPort&lt;span style=&quot;background-color: initial;&quot;&gt;(Port): void&lt;/span&gt;&lt;br&gt;+&amp;nbsp;GetPort&lt;span style=&quot;background-color: initial;&quot;&gt;(): Port&lt;/span&gt;&lt;br&gt;+&amp;nbsp;GetAnotherPort&lt;span style=&quot;background-color: initial;&quot;&gt;():&amp;nbsp;&lt;/span&gt;Port&lt;br&gt;+&amp;nbsp;GetInitialxy(): int[]&lt;span style=&quot;background-color: initial;&quot;&gt;&lt;/span&gt;&lt;br&gt;+&amp;nbsp;resetLocation&lt;span style=&quot;background-color: initial;&quot;&gt;(): void&lt;/span&gt;" style="text;strokeColor=none;fillColor=none;align=left;verticalAlign=top;spacingLeft=4;spacingRight=4;overflow=hidden;rotatable=0;points=[[0,0.5],[1,0.5]];portConstraint=eastwest;whiteSpace=wrap;html=1;" vertex="1" parent="yvwUkNfyM7RfFsWCVgiy-0">
          <mxGeometry y="68" width="170" height="122" as="geometry" />
        </mxCell>
        <mxCell id="yvwUkNfyM7RfFsWCVgiy-4" value="AssociationLine" style="swimlane;fontStyle=1;align=center;verticalAlign=top;childLayout=stackLayout;horizontal=1;startSize=26;horizontalStack=0;resizeParent=1;resizeParentMax=0;resizeLast=0;collapsible=1;marginBottom=0;whiteSpace=wrap;html=1;" vertex="1" parent="WIyWlLk6GJQsqaUBKTNV-1">
          <mxGeometry x="420" y="970" width="190" height="110" as="geometry" />
        </mxCell>
        <mxCell id="yvwUkNfyM7RfFsWCVgiy-5" value="- ArrowWidth: int&lt;br&gt;- ArrowHeight: int" style="text;strokeColor=none;fillColor=none;align=left;verticalAlign=top;spacingLeft=4;spacingRight=4;overflow=hidden;rotatable=0;points=[[0,0.5],[1,0.5]];portConstraint=eastwest;whiteSpace=wrap;html=1;" vertex="1" parent="yvwUkNfyM7RfFsWCVgiy-4">
          <mxGeometry y="26" width="190" height="34" as="geometry" />
        </mxCell>
        <mxCell id="yvwUkNfyM7RfFsWCVgiy-6" value="" style="line;strokeWidth=1;fillColor=none;align=left;verticalAlign=middle;spacingTop=-1;spacingLeft=3;spacingRight=3;rotatable=0;labelPosition=right;points=[];portConstraint=eastwest;strokeColor=inherit;" vertex="1" parent="yvwUkNfyM7RfFsWCVgiy-4">
          <mxGeometry y="60" width="190" height="8" as="geometry" />
        </mxCell>
        <mxCell id="yvwUkNfyM7RfFsWCVgiy-7" value="+&amp;nbsp;AssociationLine(int,&amp;nbsp;int, int,&amp;nbsp;int&lt;span style=&quot;background-color: initial;&quot;&gt;)&lt;/span&gt;&lt;br&gt;+&amp;nbsp;draw&lt;span style=&quot;background-color: initial;&quot;&gt;(&lt;/span&gt;&lt;span style=&quot;background-color: initial; border-color: var(--border-color);&quot;&gt;Graphics): void&lt;/span&gt;" style="text;strokeColor=none;fillColor=none;align=left;verticalAlign=top;spacingLeft=4;spacingRight=4;overflow=hidden;rotatable=0;points=[[0,0.5],[1,0.5]];portConstraint=eastwest;whiteSpace=wrap;html=1;" vertex="1" parent="yvwUkNfyM7RfFsWCVgiy-4">
          <mxGeometry y="68" width="190" height="42" as="geometry" />
        </mxCell>
        <mxCell id="yvwUkNfyM7RfFsWCVgiy-16" value="CompositionLine" style="swimlane;fontStyle=1;align=center;verticalAlign=top;childLayout=stackLayout;horizontal=1;startSize=26;horizontalStack=0;resizeParent=1;resizeParentMax=0;resizeLast=0;collapsible=1;marginBottom=0;whiteSpace=wrap;html=1;" vertex="1" parent="WIyWlLk6GJQsqaUBKTNV-1">
          <mxGeometry x="640" y="970" width="190" height="110" as="geometry" />
        </mxCell>
        <mxCell id="yvwUkNfyM7RfFsWCVgiy-17" value="- ArrowWidth: int&lt;br&gt;- ArrowHeight: int" style="text;strokeColor=none;fillColor=none;align=left;verticalAlign=top;spacingLeft=4;spacingRight=4;overflow=hidden;rotatable=0;points=[[0,0.5],[1,0.5]];portConstraint=eastwest;whiteSpace=wrap;html=1;" vertex="1" parent="yvwUkNfyM7RfFsWCVgiy-16">
          <mxGeometry y="26" width="190" height="34" as="geometry" />
        </mxCell>
        <mxCell id="yvwUkNfyM7RfFsWCVgiy-18" value="" style="line;strokeWidth=1;fillColor=none;align=left;verticalAlign=middle;spacingTop=-1;spacingLeft=3;spacingRight=3;rotatable=0;labelPosition=right;points=[];portConstraint=eastwest;strokeColor=inherit;" vertex="1" parent="yvwUkNfyM7RfFsWCVgiy-16">
          <mxGeometry y="60" width="190" height="8" as="geometry" />
        </mxCell>
        <mxCell id="yvwUkNfyM7RfFsWCVgiy-19" value="+&amp;nbsp;CompositionLine(int,&amp;nbsp;int, int,&amp;nbsp;int&lt;span style=&quot;background-color: initial;&quot;&gt;)&lt;/span&gt;&lt;br&gt;+&amp;nbsp;draw&lt;span style=&quot;background-color: initial;&quot;&gt;(&lt;/span&gt;&lt;span style=&quot;background-color: initial; border-color: var(--border-color);&quot;&gt;Graphics): void&lt;/span&gt;" style="text;strokeColor=none;fillColor=none;align=left;verticalAlign=top;spacingLeft=4;spacingRight=4;overflow=hidden;rotatable=0;points=[[0,0.5],[1,0.5]];portConstraint=eastwest;whiteSpace=wrap;html=1;" vertex="1" parent="yvwUkNfyM7RfFsWCVgiy-16">
          <mxGeometry y="68" width="190" height="42" as="geometry" />
        </mxCell>
        <mxCell id="yvwUkNfyM7RfFsWCVgiy-20" value="GeneralizationLine" style="swimlane;fontStyle=1;align=center;verticalAlign=top;childLayout=stackLayout;horizontal=1;startSize=26;horizontalStack=0;resizeParent=1;resizeParentMax=0;resizeLast=0;collapsible=1;marginBottom=0;whiteSpace=wrap;html=1;" vertex="1" parent="WIyWlLk6GJQsqaUBKTNV-1">
          <mxGeometry x="870" y="970" width="200" height="110" as="geometry" />
        </mxCell>
        <mxCell id="yvwUkNfyM7RfFsWCVgiy-21" value="- ArrowWidth: int&lt;br&gt;- ArrowHeight: int" style="text;strokeColor=none;fillColor=none;align=left;verticalAlign=top;spacingLeft=4;spacingRight=4;overflow=hidden;rotatable=0;points=[[0,0.5],[1,0.5]];portConstraint=eastwest;whiteSpace=wrap;html=1;" vertex="1" parent="yvwUkNfyM7RfFsWCVgiy-20">
          <mxGeometry y="26" width="200" height="34" as="geometry" />
        </mxCell>
        <mxCell id="yvwUkNfyM7RfFsWCVgiy-22" value="" style="line;strokeWidth=1;fillColor=none;align=left;verticalAlign=middle;spacingTop=-1;spacingLeft=3;spacingRight=3;rotatable=0;labelPosition=right;points=[];portConstraint=eastwest;strokeColor=inherit;" vertex="1" parent="yvwUkNfyM7RfFsWCVgiy-20">
          <mxGeometry y="60" width="200" height="8" as="geometry" />
        </mxCell>
        <mxCell id="yvwUkNfyM7RfFsWCVgiy-23" value="+&amp;nbsp;GeneralizationLine(int,&amp;nbsp;int, int,&amp;nbsp;int&lt;span style=&quot;background-color: initial;&quot;&gt;)&lt;/span&gt;&lt;br&gt;+&amp;nbsp;draw&lt;span style=&quot;background-color: initial;&quot;&gt;(&lt;/span&gt;&lt;span style=&quot;background-color: initial; border-color: var(--border-color);&quot;&gt;Graphics): void&lt;/span&gt;" style="text;strokeColor=none;fillColor=none;align=left;verticalAlign=top;spacingLeft=4;spacingRight=4;overflow=hidden;rotatable=0;points=[[0,0.5],[1,0.5]];portConstraint=eastwest;whiteSpace=wrap;html=1;" vertex="1" parent="yvwUkNfyM7RfFsWCVgiy-20">
          <mxGeometry y="68" width="200" height="42" as="geometry" />
        </mxCell>
        <mxCell id="yvwUkNfyM7RfFsWCVgiy-28" value="BasicObject" style="swimlane;fontStyle=1;align=center;verticalAlign=top;childLayout=stackLayout;horizontal=1;startSize=26;horizontalStack=0;resizeParent=1;resizeParentMax=0;resizeLast=0;collapsible=1;marginBottom=0;whiteSpace=wrap;html=1;" vertex="1" parent="WIyWlLk6GJQsqaUBKTNV-1">
          <mxGeometry x="240" y="710" width="170" height="210" as="geometry" />
        </mxCell>
        <mxCell id="yvwUkNfyM7RfFsWCVgiy-29" value="# width: int&lt;br&gt;#&amp;nbsp;height&lt;span style=&quot;background-color: initial;&quot;&gt;: int&lt;br&gt;&lt;/span&gt;#&amp;nbsp;ObjectName: String&lt;br&gt;- ObjectPorts:&amp;nbsp;Port[]" style="text;strokeColor=none;fillColor=none;align=left;verticalAlign=top;spacingLeft=4;spacingRight=4;overflow=hidden;rotatable=0;points=[[0,0.5],[1,0.5]];portConstraint=eastwest;whiteSpace=wrap;html=1;" vertex="1" parent="yvwUkNfyM7RfFsWCVgiy-28">
          <mxGeometry y="26" width="170" height="64" as="geometry" />
        </mxCell>
        <mxCell id="yvwUkNfyM7RfFsWCVgiy-30" value="" style="line;strokeWidth=1;fillColor=none;align=left;verticalAlign=middle;spacingTop=-1;spacingLeft=3;spacingRight=3;rotatable=0;labelPosition=right;points=[];portConstraint=eastwest;strokeColor=inherit;" vertex="1" parent="yvwUkNfyM7RfFsWCVgiy-28">
          <mxGeometry y="90" width="170" height="8" as="geometry" />
        </mxCell>
        <mxCell id="yvwUkNfyM7RfFsWCVgiy-31" value="# CreatePorts(&lt;span style=&quot;background-color: initial;&quot;&gt;):&amp;nbsp;&lt;/span&gt;void&lt;br&gt;+&amp;nbsp;ShowPorts&lt;span style=&quot;background-color: initial;&quot;&gt;(&lt;/span&gt;&lt;span style=&quot;background-color: initial; border-color: var(--border-color);&quot;&gt;Graphics): void&lt;/span&gt;&lt;br&gt;+&amp;nbsp;inside(int, int): int&lt;span style=&quot;background-color: initial;&quot;&gt;&lt;/span&gt;&lt;br&gt;+&amp;nbsp;MoveLocation&lt;span style=&quot;background-color: initial;&quot;&gt;(int, int): void&lt;/span&gt;&lt;br&gt;+&amp;nbsp;GetPort&lt;span style=&quot;background-color: initial;&quot;&gt;(int): Port&lt;/span&gt;&lt;br&gt;+&amp;nbsp;SwitchPort(int, int&lt;span style=&quot;background-color: initial;&quot;&gt;):&amp;nbsp;&lt;/span&gt;int&lt;br&gt;+&amp;nbsp;ChangeName(String): void" style="text;strokeColor=none;fillColor=none;align=left;verticalAlign=top;spacingLeft=4;spacingRight=4;overflow=hidden;rotatable=0;points=[[0,0.5],[1,0.5]];portConstraint=eastwest;whiteSpace=wrap;html=1;" vertex="1" parent="yvwUkNfyM7RfFsWCVgiy-28">
          <mxGeometry y="98" width="170" height="112" as="geometry" />
        </mxCell>
        <mxCell id="yvwUkNfyM7RfFsWCVgiy-37" value="Class" style="swimlane;fontStyle=1;align=center;verticalAlign=top;childLayout=stackLayout;horizontal=1;startSize=26;horizontalStack=0;resizeParent=1;resizeParentMax=0;resizeLast=0;collapsible=1;marginBottom=0;whiteSpace=wrap;html=1;" vertex="1" parent="WIyWlLk6GJQsqaUBKTNV-1">
          <mxGeometry x="430" y="710" width="140" height="76" as="geometry" />
        </mxCell>
        <mxCell id="yvwUkNfyM7RfFsWCVgiy-39" value="" style="line;strokeWidth=1;fillColor=none;align=left;verticalAlign=middle;spacingTop=-1;spacingLeft=3;spacingRight=3;rotatable=0;labelPosition=right;points=[];portConstraint=eastwest;strokeColor=inherit;" vertex="1" parent="yvwUkNfyM7RfFsWCVgiy-37">
          <mxGeometry y="26" width="140" height="8" as="geometry" />
        </mxCell>
        <mxCell id="yvwUkNfyM7RfFsWCVgiy-40" value="+&amp;nbsp;Class(int,&amp;nbsp;int&lt;span style=&quot;background-color: initial;&quot;&gt;)&lt;/span&gt;&lt;br&gt;+&amp;nbsp;draw&lt;span style=&quot;background-color: initial;&quot;&gt;(&lt;/span&gt;&lt;span style=&quot;background-color: initial; border-color: var(--border-color);&quot;&gt;Graphics): void&lt;/span&gt;" style="text;strokeColor=none;fillColor=none;align=left;verticalAlign=top;spacingLeft=4;spacingRight=4;overflow=hidden;rotatable=0;points=[[0,0.5],[1,0.5]];portConstraint=eastwest;whiteSpace=wrap;html=1;" vertex="1" parent="yvwUkNfyM7RfFsWCVgiy-37">
          <mxGeometry y="34" width="140" height="42" as="geometry" />
        </mxCell>
        <mxCell id="yvwUkNfyM7RfFsWCVgiy-41" value="UseCase" style="swimlane;fontStyle=1;align=center;verticalAlign=top;childLayout=stackLayout;horizontal=1;startSize=26;horizontalStack=0;resizeParent=1;resizeParentMax=0;resizeLast=0;collapsible=1;marginBottom=0;whiteSpace=wrap;html=1;" vertex="1" parent="WIyWlLk6GJQsqaUBKTNV-1">
          <mxGeometry x="430" y="810" width="140" height="76" as="geometry" />
        </mxCell>
        <mxCell id="yvwUkNfyM7RfFsWCVgiy-42" value="" style="line;strokeWidth=1;fillColor=none;align=left;verticalAlign=middle;spacingTop=-1;spacingLeft=3;spacingRight=3;rotatable=0;labelPosition=right;points=[];portConstraint=eastwest;strokeColor=inherit;" vertex="1" parent="yvwUkNfyM7RfFsWCVgiy-41">
          <mxGeometry y="26" width="140" height="8" as="geometry" />
        </mxCell>
        <mxCell id="yvwUkNfyM7RfFsWCVgiy-43" value="+&amp;nbsp;UseCase(int,&amp;nbsp;int&lt;span style=&quot;background-color: initial;&quot;&gt;)&lt;/span&gt;&lt;br&gt;+&amp;nbsp;draw&lt;span style=&quot;background-color: initial;&quot;&gt;(&lt;/span&gt;&lt;span style=&quot;background-color: initial; border-color: var(--border-color);&quot;&gt;Graphics): void&lt;/span&gt;" style="text;strokeColor=none;fillColor=none;align=left;verticalAlign=top;spacingLeft=4;spacingRight=4;overflow=hidden;rotatable=0;points=[[0,0.5],[1,0.5]];portConstraint=eastwest;whiteSpace=wrap;html=1;" vertex="1" parent="yvwUkNfyM7RfFsWCVgiy-41">
          <mxGeometry y="34" width="140" height="42" as="geometry" />
        </mxCell>
        <mxCell id="yvwUkNfyM7RfFsWCVgiy-44" value="Port" style="swimlane;fontStyle=1;align=center;verticalAlign=top;childLayout=stackLayout;horizontal=1;startSize=26;horizontalStack=0;resizeParent=1;resizeParentMax=0;resizeLast=0;collapsible=1;marginBottom=0;whiteSpace=wrap;html=1;" vertex="1" parent="WIyWlLk6GJQsqaUBKTNV-1">
          <mxGeometry x="640" y="710" width="250" height="220" as="geometry" />
        </mxCell>
        <mxCell id="yvwUkNfyM7RfFsWCVgiy-45" value="+ x: int&lt;br style=&quot;border-color: var(--border-color);&quot;&gt;+ y: int&lt;br&gt;+ width: int&lt;br style=&quot;border-color: var(--border-color);&quot;&gt;+ height: int&lt;br&gt;+ ConnectionBasicObject: BasicObject&lt;br&gt;- ConnectionLineList: List&amp;lt;ConnectionLine&amp;gt;" style="text;strokeColor=none;fillColor=none;align=left;verticalAlign=top;spacingLeft=4;spacingRight=4;overflow=hidden;rotatable=0;points=[[0,0.5],[1,0.5]];portConstraint=eastwest;whiteSpace=wrap;html=1;" vertex="1" parent="yvwUkNfyM7RfFsWCVgiy-44">
          <mxGeometry y="26" width="250" height="94" as="geometry" />
        </mxCell>
        <mxCell id="yvwUkNfyM7RfFsWCVgiy-46" value="" style="line;strokeWidth=1;fillColor=none;align=left;verticalAlign=middle;spacingTop=-1;spacingLeft=3;spacingRight=3;rotatable=0;labelPosition=right;points=[];portConstraint=eastwest;strokeColor=inherit;" vertex="1" parent="yvwUkNfyM7RfFsWCVgiy-44">
          <mxGeometry y="120" width="250" height="8" as="geometry" />
        </mxCell>
        <mxCell id="yvwUkNfyM7RfFsWCVgiy-47" value="+&amp;nbsp;Port(BasicObject)&lt;br&gt;+&amp;nbsp;setPort(int,&amp;nbsp;int):&amp;nbsp;void&lt;br&gt;+&amp;nbsp;getxy():&amp;nbsp;int[]&lt;br&gt;+&amp;nbsp;addLine(ConnectionLine):&amp;nbsp;void&lt;br&gt;+&amp;nbsp;removeLine(ConnectionLine):&amp;nbsp;void&lt;br&gt;+&amp;nbsp;resetLines&lt;span style=&quot;background-color: initial;&quot;&gt;():&amp;nbsp;&lt;/span&gt;void" style="text;strokeColor=none;fillColor=none;align=left;verticalAlign=top;spacingLeft=4;spacingRight=4;overflow=hidden;rotatable=0;points=[[0,0.5],[1,0.5]];portConstraint=eastwest;whiteSpace=wrap;html=1;" vertex="1" parent="yvwUkNfyM7RfFsWCVgiy-44">
          <mxGeometry y="128" width="250" height="92" as="geometry" />
        </mxCell>
        <mxCell id="yvwUkNfyM7RfFsWCVgiy-48" value="Group" style="swimlane;fontStyle=1;align=center;verticalAlign=top;childLayout=stackLayout;horizontal=1;startSize=26;horizontalStack=0;resizeParent=1;resizeParentMax=0;resizeLast=0;collapsible=1;marginBottom=0;whiteSpace=wrap;html=1;" vertex="1" parent="WIyWlLk6GJQsqaUBKTNV-1">
          <mxGeometry x="910" y="710" width="230" height="190" as="geometry" />
        </mxCell>
        <mxCell id="yvwUkNfyM7RfFsWCVgiy-49" value="- width: int&lt;br style=&quot;border-color: var(--border-color);&quot;&gt;- height: int&lt;br&gt;- bound: int&lt;br&gt;- GroupObjectList: ArrayList&amp;lt;graph&amp;gt;" style="text;strokeColor=none;fillColor=none;align=left;verticalAlign=top;spacingLeft=4;spacingRight=4;overflow=hidden;rotatable=0;points=[[0,0.5],[1,0.5]];portConstraint=eastwest;whiteSpace=wrap;html=1;" vertex="1" parent="yvwUkNfyM7RfFsWCVgiy-48">
          <mxGeometry y="26" width="230" height="64" as="geometry" />
        </mxCell>
        <mxCell id="yvwUkNfyM7RfFsWCVgiy-50" value="" style="line;strokeWidth=1;fillColor=none;align=left;verticalAlign=middle;spacingTop=-1;spacingLeft=3;spacingRight=3;rotatable=0;labelPosition=right;points=[];portConstraint=eastwest;strokeColor=inherit;" vertex="1" parent="yvwUkNfyM7RfFsWCVgiy-48">
          <mxGeometry y="90" width="230" height="8" as="geometry" />
        </mxCell>
        <mxCell id="yvwUkNfyM7RfFsWCVgiy-51" value="+&amp;nbsp;setBound(int,&amp;nbsp;int, int,&amp;nbsp;int): void&lt;br&gt;+&amp;nbsp;addGraphs&lt;span style=&quot;background-color: initial;&quot;&gt;(ArrayList&amp;lt;graph&amp;gt;):&amp;nbsp;void&lt;/span&gt;&lt;br&gt;+&amp;nbsp;draw(Graphics&lt;span style=&quot;background-color: initial;&quot;&gt;):&amp;nbsp;void&lt;/span&gt;&lt;br&gt;+&amp;nbsp;inside(int,&amp;nbsp;int):&amp;nbsp;int&lt;span style=&quot;background-color: initial;&quot;&gt;&lt;/span&gt;&lt;br&gt;+&amp;nbsp;MoveLocation(int,&amp;nbsp;int&lt;span style=&quot;background-color: initial;&quot;&gt;):&amp;nbsp;void&lt;/span&gt;&lt;br&gt;+&amp;nbsp;getGroupObjectList&lt;span style=&quot;background-color: initial;&quot;&gt;():&amp;nbsp;&lt;/span&gt;ArrayList&amp;lt;graph&amp;gt;" style="text;strokeColor=none;fillColor=none;align=left;verticalAlign=top;spacingLeft=4;spacingRight=4;overflow=hidden;rotatable=0;points=[[0,0.5],[1,0.5]];portConstraint=eastwest;whiteSpace=wrap;html=1;" vertex="1" parent="yvwUkNfyM7RfFsWCVgiy-48">
          <mxGeometry y="98" width="230" height="92" as="geometry" />
        </mxCell>
        <mxCell id="yvwUkNfyM7RfFsWCVgiy-52" value="graph" style="swimlane;fontStyle=1;align=center;verticalAlign=top;childLayout=stackLayout;horizontal=1;startSize=26;horizontalStack=0;resizeParent=1;resizeParentMax=0;resizeLast=0;collapsible=1;marginBottom=0;whiteSpace=wrap;html=1;" vertex="1" parent="WIyWlLk6GJQsqaUBKTNV-1">
          <mxGeometry x="40" y="710" width="170" height="260" as="geometry" />
        </mxCell>
        <mxCell id="yvwUkNfyM7RfFsWCVgiy-53" value="#&amp;nbsp;x1&lt;span style=&quot;background-color: initial;&quot;&gt;: int&lt;/span&gt;&lt;br&gt;#&amp;nbsp;y1&lt;span style=&quot;background-color: initial;&quot;&gt;: int&lt;br&gt;&lt;/span&gt;#&amp;nbsp;x2: int&lt;br style=&quot;border-color: var(--border-color);&quot;&gt;#&amp;nbsp;y2&lt;span style=&quot;border-color: var(--border-color); background-color: initial;&quot;&gt;: int&lt;/span&gt;&lt;br&gt;+ InGroup&lt;span style=&quot;background-color: initial;&quot;&gt;:&amp;nbsp;&lt;/span&gt;boolean" style="text;strokeColor=none;fillColor=none;align=left;verticalAlign=top;spacingLeft=4;spacingRight=4;overflow=hidden;rotatable=0;points=[[0,0.5],[1,0.5]];portConstraint=eastwest;whiteSpace=wrap;html=1;" vertex="1" parent="yvwUkNfyM7RfFsWCVgiy-52">
          <mxGeometry y="26" width="170" height="74" as="geometry" />
        </mxCell>
        <mxCell id="yvwUkNfyM7RfFsWCVgiy-54" value="" style="line;strokeWidth=1;fillColor=none;align=left;verticalAlign=middle;spacingTop=-1;spacingLeft=3;spacingRight=3;rotatable=0;labelPosition=right;points=[];portConstraint=eastwest;strokeColor=inherit;" vertex="1" parent="yvwUkNfyM7RfFsWCVgiy-52">
          <mxGeometry y="100" width="170" height="8" as="geometry" />
        </mxCell>
        <mxCell id="yvwUkNfyM7RfFsWCVgiy-55" value="+&amp;nbsp;getx1&lt;span style=&quot;background-color: initial;&quot;&gt;(&lt;/span&gt;&lt;span style=&quot;background-color: initial; border-color: var(--border-color);&quot;&gt;):&amp;nbsp;int&lt;br&gt;+&amp;nbsp;gety1(&lt;span style=&quot;border-color: var(--border-color); background-color: initial;&quot;&gt;):&amp;nbsp;int&lt;br&gt;&lt;/span&gt;+&amp;nbsp;getx2(&lt;span style=&quot;border-color: var(--border-color); background-color: initial;&quot;&gt;):&amp;nbsp;int&lt;br&gt;&lt;/span&gt;+&amp;nbsp;gety2(&lt;span style=&quot;border-color: var(--border-color); background-color: initial;&quot;&gt;):&amp;nbsp;int&lt;/span&gt;&lt;br&gt;&lt;/span&gt;+&amp;nbsp;draw&lt;span style=&quot;background-color: initial;&quot;&gt;(Graphics):&amp;nbsp;&lt;/span&gt;void&lt;br&gt;+&amp;nbsp;inside(int, int): int&lt;span style=&quot;background-color: initial;&quot;&gt;&lt;/span&gt;&lt;br&gt;+&amp;nbsp;MoveLocation(int, int&lt;span style=&quot;background-color: initial;&quot;&gt;):&amp;nbsp;&lt;/span&gt;void&lt;br&gt;+&amp;nbsp;GetPort(): Port&lt;br&gt;+&amp;nbsp;GetPort&lt;span style=&quot;background-color: initial;&quot;&gt;(int&lt;/span&gt;): Port&lt;br&gt;+&amp;nbsp;ShowPorts(Graphics): void" style="text;strokeColor=none;fillColor=none;align=left;verticalAlign=top;spacingLeft=4;spacingRight=4;overflow=hidden;rotatable=0;points=[[0,0.5],[1,0.5]];portConstraint=eastwest;whiteSpace=wrap;html=1;" vertex="1" parent="yvwUkNfyM7RfFsWCVgiy-52">
          <mxGeometry y="108" width="170" height="152" as="geometry" />
        </mxCell>
        <mxCell id="yvwUkNfyM7RfFsWCVgiy-56" value="MouseEventListener" style="swimlane;fontStyle=1;align=center;verticalAlign=top;childLayout=stackLayout;horizontal=1;startSize=26;horizontalStack=0;resizeParent=1;resizeParentMax=0;resizeLast=0;collapsible=1;marginBottom=0;whiteSpace=wrap;html=1;" vertex="1" parent="WIyWlLk6GJQsqaUBKTNV-1">
          <mxGeometry x="210" y="20" width="220" height="140" as="geometry" />
        </mxCell>
        <mxCell id="yvwUkNfyM7RfFsWCVgiy-57" value="" style="line;strokeWidth=1;fillColor=none;align=left;verticalAlign=middle;spacingTop=-1;spacingLeft=3;spacingRight=3;rotatable=0;labelPosition=right;points=[];portConstraint=eastwest;strokeColor=inherit;" vertex="1" parent="yvwUkNfyM7RfFsWCVgiy-56">
          <mxGeometry y="26" width="220" height="8" as="geometry" />
        </mxCell>
        <mxCell id="yvwUkNfyM7RfFsWCVgiy-58" value="+&amp;nbsp;mouseClicked&lt;span style=&quot;background-color: initial;&quot;&gt;(&lt;/span&gt;&lt;span style=&quot;background-color: initial; border-color: var(--border-color);&quot;&gt;MouseEvent): void&lt;br&gt;+&amp;nbsp;mousePressed&lt;span style=&quot;background-color: initial;&quot;&gt;(&lt;/span&gt;&lt;span style=&quot;background-color: initial; border-color: var(--border-color);&quot;&gt;MouseEvent): void&lt;/span&gt;&lt;br&gt;+&amp;nbsp;mouseReleased&lt;span style=&quot;background-color: initial;&quot;&gt;(&lt;/span&gt;&lt;span style=&quot;background-color: initial; border-color: var(--border-color);&quot;&gt;MouseEvent): void&lt;/span&gt;&lt;br&gt;+&amp;nbsp;mouseEntered&lt;span style=&quot;background-color: initial;&quot;&gt;(&lt;/span&gt;&lt;span style=&quot;background-color: initial; border-color: var(--border-color);&quot;&gt;MouseEvent): void&lt;/span&gt;&lt;br&gt;+&amp;nbsp;mouseExited&lt;span style=&quot;background-color: initial;&quot;&gt;(&lt;/span&gt;&lt;span style=&quot;background-color: initial; border-color: var(--border-color);&quot;&gt;MouseEvent): void&lt;/span&gt;&lt;br&gt;+&amp;nbsp;mouseDragged&lt;span style=&quot;background-color: initial;&quot;&gt;(&lt;/span&gt;&lt;span style=&quot;background-color: initial; border-color: var(--border-color);&quot;&gt;MouseEvent): void&lt;/span&gt;&lt;br&gt;+&amp;nbsp;mouseMoved&lt;/span&gt;&lt;span style=&quot;background-color: initial;&quot;&gt;(&lt;/span&gt;&lt;span style=&quot;background-color: initial; border-color: var(--border-color);&quot;&gt;MouseEvent): void&lt;/span&gt;" style="text;strokeColor=none;fillColor=none;align=left;verticalAlign=top;spacingLeft=4;spacingRight=4;overflow=hidden;rotatable=0;points=[[0,0.5],[1,0.5]];portConstraint=eastwest;whiteSpace=wrap;html=1;" vertex="1" parent="yvwUkNfyM7RfFsWCVgiy-56">
          <mxGeometry y="34" width="220" height="106" as="geometry" />
        </mxCell>
        <mxCell id="yvwUkNfyM7RfFsWCVgiy-59" value="UMLeditor" style="swimlane;fontStyle=1;align=center;verticalAlign=top;childLayout=stackLayout;horizontal=1;startSize=26;horizontalStack=0;resizeParent=1;resizeParentMax=0;resizeLast=0;collapsible=1;marginBottom=0;whiteSpace=wrap;html=1;" vertex="1" parent="WIyWlLk6GJQsqaUBKTNV-1">
          <mxGeometry x="40" y="20" width="130" height="130" as="geometry" />
        </mxCell>
        <mxCell id="yvwUkNfyM7RfFsWCVgiy-60" value="- menu:&amp;nbsp;Menu&lt;br&gt;- tool: Tool&lt;br&gt;- canvas: Canvas" style="text;strokeColor=none;fillColor=none;align=left;verticalAlign=top;spacingLeft=4;spacingRight=4;overflow=hidden;rotatable=0;points=[[0,0.5],[1,0.5]];portConstraint=eastwest;whiteSpace=wrap;html=1;" vertex="1" parent="yvwUkNfyM7RfFsWCVgiy-59">
          <mxGeometry y="26" width="130" height="54" as="geometry" />
        </mxCell>
        <mxCell id="yvwUkNfyM7RfFsWCVgiy-61" value="" style="line;strokeWidth=1;fillColor=none;align=left;verticalAlign=middle;spacingTop=-1;spacingLeft=3;spacingRight=3;rotatable=0;labelPosition=right;points=[];portConstraint=eastwest;strokeColor=inherit;" vertex="1" parent="yvwUkNfyM7RfFsWCVgiy-59">
          <mxGeometry y="80" width="130" height="8" as="geometry" />
        </mxCell>
        <mxCell id="yvwUkNfyM7RfFsWCVgiy-62" value="- UMLeditor&lt;span style=&quot;background-color: initial;&quot;&gt;(&lt;/span&gt;&lt;span style=&quot;background-color: initial;&quot;&gt;)&lt;/span&gt;&lt;br&gt;&lt;u&gt;+&amp;nbsp;main&lt;span style=&quot;background-color: initial;&quot;&gt;(&lt;/span&gt;&lt;span style=&quot;background-color: initial; border-color: var(--border-color);&quot;&gt;String[]): void&lt;/span&gt;&lt;/u&gt;" style="text;strokeColor=none;fillColor=none;align=left;verticalAlign=top;spacingLeft=4;spacingRight=4;overflow=hidden;rotatable=0;points=[[0,0.5],[1,0.5]];portConstraint=eastwest;whiteSpace=wrap;html=1;" vertex="1" parent="yvwUkNfyM7RfFsWCVgiy-59">
          <mxGeometry y="88" width="130" height="42" as="geometry" />
        </mxCell>
        <mxCell id="yvwUkNfyM7RfFsWCVgiy-63" value="Tool" style="swimlane;fontStyle=1;align=center;verticalAlign=top;childLayout=stackLayout;horizontal=1;startSize=26;horizontalStack=0;resizeParent=1;resizeParentMax=0;resizeLast=0;collapsible=1;marginBottom=0;whiteSpace=wrap;html=1;" vertex="1" parent="WIyWlLk6GJQsqaUBKTNV-1">
          <mxGeometry x="40" y="190" width="140" height="90" as="geometry" />
        </mxCell>
        <mxCell id="yvwUkNfyM7RfFsWCVgiy-64" value="- button_pushed:&amp;nbsp;Button&lt;br&gt;- canvas: Canvas" style="text;strokeColor=none;fillColor=none;align=left;verticalAlign=top;spacingLeft=4;spacingRight=4;overflow=hidden;rotatable=0;points=[[0,0.5],[1,0.5]];portConstraint=eastwest;whiteSpace=wrap;html=1;" vertex="1" parent="yvwUkNfyM7RfFsWCVgiy-63">
          <mxGeometry y="26" width="140" height="34" as="geometry" />
        </mxCell>
        <mxCell id="yvwUkNfyM7RfFsWCVgiy-65" value="" style="line;strokeWidth=1;fillColor=none;align=left;verticalAlign=middle;spacingTop=-1;spacingLeft=3;spacingRight=3;rotatable=0;labelPosition=right;points=[];portConstraint=eastwest;strokeColor=inherit;" vertex="1" parent="yvwUkNfyM7RfFsWCVgiy-63">
          <mxGeometry y="60" width="140" height="8" as="geometry" />
        </mxCell>
        <mxCell id="yvwUkNfyM7RfFsWCVgiy-66" value="+ Tool&lt;span style=&quot;background-color: initial;&quot;&gt;(&lt;/span&gt;&lt;span style=&quot;background-color: initial;&quot;&gt;)&lt;/span&gt;" style="text;strokeColor=none;fillColor=none;align=left;verticalAlign=top;spacingLeft=4;spacingRight=4;overflow=hidden;rotatable=0;points=[[0,0.5],[1,0.5]];portConstraint=eastwest;whiteSpace=wrap;html=1;" vertex="1" parent="yvwUkNfyM7RfFsWCVgiy-63">
          <mxGeometry y="68" width="140" height="22" as="geometry" />
        </mxCell>
        <mxCell id="yvwUkNfyM7RfFsWCVgiy-67" value="Button" style="swimlane;fontStyle=1;align=center;verticalAlign=top;childLayout=stackLayout;horizontal=1;startSize=26;horizontalStack=0;resizeParent=1;resizeParentMax=0;resizeLast=0;collapsible=1;marginBottom=0;whiteSpace=wrap;html=1;" vertex="1" parent="WIyWlLk6GJQsqaUBKTNV-1">
          <mxGeometry x="210" y="190" width="180" height="80" as="geometry" />
        </mxCell>
        <mxCell id="yvwUkNfyM7RfFsWCVgiy-68" value="- Toolnum:&amp;nbsp;int" style="text;strokeColor=none;fillColor=none;align=left;verticalAlign=top;spacingLeft=4;spacingRight=4;overflow=hidden;rotatable=0;points=[[0,0.5],[1,0.5]];portConstraint=eastwest;whiteSpace=wrap;html=1;" vertex="1" parent="yvwUkNfyM7RfFsWCVgiy-67">
          <mxGeometry y="26" width="180" height="24" as="geometry" />
        </mxCell>
        <mxCell id="yvwUkNfyM7RfFsWCVgiy-69" value="" style="line;strokeWidth=1;fillColor=none;align=left;verticalAlign=middle;spacingTop=-1;spacingLeft=3;spacingRight=3;rotatable=0;labelPosition=right;points=[];portConstraint=eastwest;strokeColor=inherit;" vertex="1" parent="yvwUkNfyM7RfFsWCVgiy-67">
          <mxGeometry y="50" width="180" height="8" as="geometry" />
        </mxCell>
        <mxCell id="yvwUkNfyM7RfFsWCVgiy-70" value="+ Button(String,&amp;nbsp;ImageIcon,&amp;nbsp;int&lt;span style=&quot;background-color: initial;&quot;&gt;)&lt;/span&gt;" style="text;strokeColor=none;fillColor=none;align=left;verticalAlign=top;spacingLeft=4;spacingRight=4;overflow=hidden;rotatable=0;points=[[0,0.5],[1,0.5]];portConstraint=eastwest;whiteSpace=wrap;html=1;" vertex="1" parent="yvwUkNfyM7RfFsWCVgiy-67">
          <mxGeometry y="58" width="180" height="22" as="geometry" />
        </mxCell>
        <mxCell id="yvwUkNfyM7RfFsWCVgiy-71" value="buttonListener" style="swimlane;fontStyle=1;align=center;verticalAlign=top;childLayout=stackLayout;horizontal=1;startSize=26;horizontalStack=0;resizeParent=1;resizeParentMax=0;resizeLast=0;collapsible=1;marginBottom=0;whiteSpace=wrap;html=1;" vertex="1" parent="WIyWlLk6GJQsqaUBKTNV-1">
          <mxGeometry x="414" y="190" width="210" height="56" as="geometry" />
        </mxCell>
        <mxCell id="yvwUkNfyM7RfFsWCVgiy-73" value="" style="line;strokeWidth=1;fillColor=none;align=left;verticalAlign=middle;spacingTop=-1;spacingLeft=3;spacingRight=3;rotatable=0;labelPosition=right;points=[];portConstraint=eastwest;strokeColor=inherit;" vertex="1" parent="yvwUkNfyM7RfFsWCVgiy-71">
          <mxGeometry y="26" width="210" height="8" as="geometry" />
        </mxCell>
        <mxCell id="yvwUkNfyM7RfFsWCVgiy-74" value="+ actionPerformed(ActionEvent&lt;span style=&quot;background-color: initial;&quot;&gt;):&amp;nbsp;&lt;/span&gt;void" style="text;strokeColor=none;fillColor=none;align=left;verticalAlign=top;spacingLeft=4;spacingRight=4;overflow=hidden;rotatable=0;points=[[0,0.5],[1,0.5]];portConstraint=eastwest;whiteSpace=wrap;html=1;" vertex="1" parent="yvwUkNfyM7RfFsWCVgiy-71">
          <mxGeometry y="34" width="210" height="22" as="geometry" />
        </mxCell>
        <mxCell id="yvwUkNfyM7RfFsWCVgiy-75" value="Menu" style="swimlane;fontStyle=1;align=center;verticalAlign=top;childLayout=stackLayout;horizontal=1;startSize=26;horizontalStack=0;resizeParent=1;resizeParentMax=0;resizeLast=0;collapsible=1;marginBottom=0;whiteSpace=wrap;html=1;" vertex="1" parent="WIyWlLk6GJQsqaUBKTNV-1">
          <mxGeometry x="40" y="300" width="110" height="80" as="geometry" />
        </mxCell>
        <mxCell id="yvwUkNfyM7RfFsWCVgiy-76" value="- canvas: Canvas" style="text;strokeColor=none;fillColor=none;align=left;verticalAlign=top;spacingLeft=4;spacingRight=4;overflow=hidden;rotatable=0;points=[[0,0.5],[1,0.5]];portConstraint=eastwest;whiteSpace=wrap;html=1;" vertex="1" parent="yvwUkNfyM7RfFsWCVgiy-75">
          <mxGeometry y="26" width="110" height="24" as="geometry" />
        </mxCell>
        <mxCell id="yvwUkNfyM7RfFsWCVgiy-77" value="" style="line;strokeWidth=1;fillColor=none;align=left;verticalAlign=middle;spacingTop=-1;spacingLeft=3;spacingRight=3;rotatable=0;labelPosition=right;points=[];portConstraint=eastwest;strokeColor=inherit;" vertex="1" parent="yvwUkNfyM7RfFsWCVgiy-75">
          <mxGeometry y="50" width="110" height="8" as="geometry" />
        </mxCell>
        <mxCell id="yvwUkNfyM7RfFsWCVgiy-78" value="+ Menu&lt;span style=&quot;background-color: initial;&quot;&gt;(&lt;/span&gt;&lt;span style=&quot;background-color: initial;&quot;&gt;)&lt;/span&gt;" style="text;strokeColor=none;fillColor=none;align=left;verticalAlign=top;spacingLeft=4;spacingRight=4;overflow=hidden;rotatable=0;points=[[0,0.5],[1,0.5]];portConstraint=eastwest;whiteSpace=wrap;html=1;" vertex="1" parent="yvwUkNfyM7RfFsWCVgiy-75">
          <mxGeometry y="58" width="110" height="22" as="geometry" />
        </mxCell>
        <mxCell id="yvwUkNfyM7RfFsWCVgiy-79" value="GroupListener" style="swimlane;fontStyle=1;align=center;verticalAlign=top;childLayout=stackLayout;horizontal=1;startSize=26;horizontalStack=0;resizeParent=1;resizeParentMax=0;resizeLast=0;collapsible=1;marginBottom=0;whiteSpace=wrap;html=1;" vertex="1" parent="WIyWlLk6GJQsqaUBKTNV-1">
          <mxGeometry x="170" y="300" width="210" height="56" as="geometry" />
        </mxCell>
        <mxCell id="yvwUkNfyM7RfFsWCVgiy-80" value="" style="line;strokeWidth=1;fillColor=none;align=left;verticalAlign=middle;spacingTop=-1;spacingLeft=3;spacingRight=3;rotatable=0;labelPosition=right;points=[];portConstraint=eastwest;strokeColor=inherit;" vertex="1" parent="yvwUkNfyM7RfFsWCVgiy-79">
          <mxGeometry y="26" width="210" height="8" as="geometry" />
        </mxCell>
        <mxCell id="yvwUkNfyM7RfFsWCVgiy-81" value="+ actionPerformed(ActionEvent&lt;span style=&quot;background-color: initial;&quot;&gt;):&amp;nbsp;&lt;/span&gt;void" style="text;strokeColor=none;fillColor=none;align=left;verticalAlign=top;spacingLeft=4;spacingRight=4;overflow=hidden;rotatable=0;points=[[0,0.5],[1,0.5]];portConstraint=eastwest;whiteSpace=wrap;html=1;" vertex="1" parent="yvwUkNfyM7RfFsWCVgiy-79">
          <mxGeometry y="34" width="210" height="22" as="geometry" />
        </mxCell>
        <mxCell id="yvwUkNfyM7RfFsWCVgiy-82" value="UngroupListener" style="swimlane;fontStyle=1;align=center;verticalAlign=top;childLayout=stackLayout;horizontal=1;startSize=26;horizontalStack=0;resizeParent=1;resizeParentMax=0;resizeLast=0;collapsible=1;marginBottom=0;whiteSpace=wrap;html=1;" vertex="1" parent="WIyWlLk6GJQsqaUBKTNV-1">
          <mxGeometry x="400" y="300" width="210" height="56" as="geometry" />
        </mxCell>
        <mxCell id="yvwUkNfyM7RfFsWCVgiy-83" value="" style="line;strokeWidth=1;fillColor=none;align=left;verticalAlign=middle;spacingTop=-1;spacingLeft=3;spacingRight=3;rotatable=0;labelPosition=right;points=[];portConstraint=eastwest;strokeColor=inherit;" vertex="1" parent="yvwUkNfyM7RfFsWCVgiy-82">
          <mxGeometry y="26" width="210" height="8" as="geometry" />
        </mxCell>
        <mxCell id="yvwUkNfyM7RfFsWCVgiy-84" value="+ actionPerformed(ActionEvent&lt;span style=&quot;background-color: initial;&quot;&gt;):&amp;nbsp;&lt;/span&gt;void" style="text;strokeColor=none;fillColor=none;align=left;verticalAlign=top;spacingLeft=4;spacingRight=4;overflow=hidden;rotatable=0;points=[[0,0.5],[1,0.5]];portConstraint=eastwest;whiteSpace=wrap;html=1;" vertex="1" parent="yvwUkNfyM7RfFsWCVgiy-82">
          <mxGeometry y="34" width="210" height="22" as="geometry" />
        </mxCell>
        <mxCell id="yvwUkNfyM7RfFsWCVgiy-85" value="ChangeObjectNameListener" style="swimlane;fontStyle=1;align=center;verticalAlign=top;childLayout=stackLayout;horizontal=1;startSize=26;horizontalStack=0;resizeParent=1;resizeParentMax=0;resizeLast=0;collapsible=1;marginBottom=0;whiteSpace=wrap;html=1;" vertex="1" parent="WIyWlLk6GJQsqaUBKTNV-1">
          <mxGeometry x="630" y="300" width="210" height="56" as="geometry" />
        </mxCell>
        <mxCell id="yvwUkNfyM7RfFsWCVgiy-86" value="" style="line;strokeWidth=1;fillColor=none;align=left;verticalAlign=middle;spacingTop=-1;spacingLeft=3;spacingRight=3;rotatable=0;labelPosition=right;points=[];portConstraint=eastwest;strokeColor=inherit;" vertex="1" parent="yvwUkNfyM7RfFsWCVgiy-85">
          <mxGeometry y="26" width="210" height="8" as="geometry" />
        </mxCell>
        <mxCell id="yvwUkNfyM7RfFsWCVgiy-87" value="+ actionPerformed(ActionEvent&lt;span style=&quot;background-color: initial;&quot;&gt;):&amp;nbsp;&lt;/span&gt;void" style="text;strokeColor=none;fillColor=none;align=left;verticalAlign=top;spacingLeft=4;spacingRight=4;overflow=hidden;rotatable=0;points=[[0,0.5],[1,0.5]];portConstraint=eastwest;whiteSpace=wrap;html=1;" vertex="1" parent="yvwUkNfyM7RfFsWCVgiy-85">
          <mxGeometry y="34" width="210" height="22" as="geometry" />
        </mxCell>
        <mxCell id="yvwUkNfyM7RfFsWCVgiy-92" value="Canvas" style="swimlane;fontStyle=1;align=center;verticalAlign=top;childLayout=stackLayout;horizontal=1;startSize=26;horizontalStack=0;resizeParent=1;resizeParentMax=0;resizeLast=0;collapsible=1;marginBottom=0;whiteSpace=wrap;html=1;" vertex="1" parent="WIyWlLk6GJQsqaUBKTNV-1">
          <mxGeometry x="40" y="390" width="250" height="260" as="geometry" />
        </mxCell>
        <mxCell id="yvwUkNfyM7RfFsWCVgiy-93" value="&lt;u&gt;- instance: Canvas&lt;br style=&quot;border-color: var(--border-color);&quot;&gt;&lt;/u&gt;- currentMode: int&lt;br&gt;- SelectedObject: graph&lt;br style=&quot;border-color: var(--border-color);&quot;&gt;- SelectedArea: Rectangle&lt;br&gt;- SelectedAreaObjectList: ArrayList&amp;lt;graph&amp;gt;&lt;br&gt;- tmpConnectionLine: ConnectionLine&lt;br&gt;-&amp;nbsp;GraphList&lt;span style=&quot;background-color: initial;&quot;&gt;:&amp;nbsp;&lt;/span&gt;ArrayList&amp;lt;graph&amp;gt;" style="text;strokeColor=none;fillColor=none;align=left;verticalAlign=top;spacingLeft=4;spacingRight=4;overflow=hidden;rotatable=0;points=[[0,0.5],[1,0.5]];portConstraint=eastwest;whiteSpace=wrap;html=1;" vertex="1" parent="yvwUkNfyM7RfFsWCVgiy-92">
          <mxGeometry y="26" width="250" height="104" as="geometry" />
        </mxCell>
        <mxCell id="yvwUkNfyM7RfFsWCVgiy-94" value="" style="line;strokeWidth=1;fillColor=none;align=left;verticalAlign=middle;spacingTop=-1;spacingLeft=3;spacingRight=3;rotatable=0;labelPosition=right;points=[];portConstraint=eastwest;strokeColor=inherit;" vertex="1" parent="yvwUkNfyM7RfFsWCVgiy-92">
          <mxGeometry y="130" width="250" height="8" as="geometry" />
        </mxCell>
        <mxCell id="yvwUkNfyM7RfFsWCVgiy-95" value="- Canvas()&lt;br&gt;&lt;u&gt;+&amp;nbsp;getInstance():&amp;nbsp;Canvas&lt;br&gt;&lt;/u&gt;+&amp;nbsp;setMode(int&lt;span style=&quot;background-color: initial;&quot;&gt;):&amp;nbsp;void&lt;/span&gt;&lt;br&gt;+&amp;nbsp;GroupObjects&lt;span style=&quot;background-color: initial;&quot;&gt;():&amp;nbsp;void&lt;/span&gt;&lt;br&gt;+&amp;nbsp;UngroupObjects():&amp;nbsp;void&lt;br&gt;+&amp;nbsp;ChangeSelectedObjectName&lt;span style=&quot;background-color: initial;&quot;&gt;(String):&amp;nbsp;&lt;/span&gt;void&lt;br&gt;+&amp;nbsp;CheckSelectedArea(graph):&amp;nbsp;boolean&lt;span style=&quot;background-color: initial;&quot;&gt;&lt;/span&gt;&lt;br&gt;+&amp;nbsp;paint(Graphics):&amp;nbsp;void" style="text;strokeColor=none;fillColor=none;align=left;verticalAlign=top;spacingLeft=4;spacingRight=4;overflow=hidden;rotatable=0;points=[[0,0.5],[1,0.5]];portConstraint=eastwest;whiteSpace=wrap;html=1;" vertex="1" parent="yvwUkNfyM7RfFsWCVgiy-92">
          <mxGeometry y="138" width="250" height="122" as="geometry" />
        </mxCell>
        <mxCell id="yvwUkNfyM7RfFsWCVgiy-96" value="CanvasListener" style="swimlane;fontStyle=1;align=center;verticalAlign=top;childLayout=stackLayout;horizontal=1;startSize=26;horizontalStack=0;resizeParent=1;resizeParentMax=0;resizeLast=0;collapsible=1;marginBottom=0;whiteSpace=wrap;html=1;" vertex="1" parent="WIyWlLk6GJQsqaUBKTNV-1">
          <mxGeometry x="330" y="390" width="250" height="220" as="geometry" />
        </mxCell>
        <mxCell id="yvwUkNfyM7RfFsWCVgiy-97" value="- start_x:&amp;nbsp;int&lt;br&gt;-&amp;nbsp;start_y&lt;span style=&quot;background-color: initial;&quot;&gt;: int&lt;/span&gt;&lt;br&gt;-&amp;nbsp;mouse_is_inside: int&lt;span style=&quot;background-color: initial;&quot;&gt;&lt;/span&gt;&lt;br&gt;-&amp;nbsp;graph1&lt;span style=&quot;background-color: initial;&quot;&gt;:&amp;nbsp;&lt;/span&gt;graph&lt;br&gt;- graph2: graph&lt;br&gt;- portnum1:&amp;nbsp;int&lt;br&gt;-&amp;nbsp;portnum2&lt;span style=&quot;background-color: initial;&quot;&gt;:&amp;nbsp;&lt;/span&gt;int" style="text;strokeColor=none;fillColor=none;align=left;verticalAlign=top;spacingLeft=4;spacingRight=4;overflow=hidden;rotatable=0;points=[[0,0.5],[1,0.5]];portConstraint=eastwest;whiteSpace=wrap;html=1;" vertex="1" parent="yvwUkNfyM7RfFsWCVgiy-96">
          <mxGeometry y="26" width="250" height="104" as="geometry" />
        </mxCell>
        <mxCell id="yvwUkNfyM7RfFsWCVgiy-98" value="" style="line;strokeWidth=1;fillColor=none;align=left;verticalAlign=middle;spacingTop=-1;spacingLeft=3;spacingRight=3;rotatable=0;labelPosition=right;points=[];portConstraint=eastwest;strokeColor=inherit;" vertex="1" parent="yvwUkNfyM7RfFsWCVgiy-96">
          <mxGeometry y="130" width="250" height="8" as="geometry" />
        </mxCell>
        <mxCell id="yvwUkNfyM7RfFsWCVgiy-99" value="+&amp;nbsp;mousePressed(MouseEvent):&amp;nbsp;void&lt;br&gt;+&amp;nbsp;mouseDragged(MouseEvent&lt;span style=&quot;background-color: initial;&quot;&gt;):&amp;nbsp;void&lt;/span&gt;&lt;br&gt;+&amp;nbsp;mouseReleased(MouseEvent&lt;span style=&quot;background-color: initial;&quot;&gt;):&amp;nbsp;void&lt;/span&gt;&lt;br&gt;- FindConnetedBasicObject(int, int,&amp;nbsp;int&lt;span style=&quot;background-color: initial;&quot;&gt;):&amp;nbsp;void&lt;/span&gt;&lt;br&gt;- reConnectLine(int, int&lt;span style=&quot;background-color: initial;&quot;&gt;):&amp;nbsp;&lt;/span&gt;void" style="text;strokeColor=none;fillColor=none;align=left;verticalAlign=top;spacingLeft=4;spacingRight=4;overflow=hidden;rotatable=0;points=[[0,0.5],[1,0.5]];portConstraint=eastwest;whiteSpace=wrap;html=1;" vertex="1" parent="yvwUkNfyM7RfFsWCVgiy-96">
          <mxGeometry y="138" width="250" height="82" as="geometry" />
        </mxCell>
      </root>
    </mxGraphModel>
  </diagram>
  <diagram id="xj3ZmEpKha8iwCJJzO3E" name="第2頁">
    <mxGraphModel dx="1444" dy="1623" grid="1" gridSize="10" guides="1" tooltips="1" connect="1" arrows="1" fold="1" page="1" pageScale="1" pageWidth="1169" pageHeight="827" background="#FFFFFF" math="0" shadow="0">
      <root>
        <mxCell id="0" />
        <mxCell id="1" parent="0" />
        <mxCell id="11wZY2oROPmIKHLb7UKP-1" value="ConnectionLine" style="swimlane;fontStyle=1;align=center;verticalAlign=top;childLayout=stackLayout;horizontal=1;startSize=26;horizontalStack=0;resizeParent=1;resizeParentMax=0;resizeLast=0;collapsible=1;marginBottom=0;whiteSpace=wrap;html=1;" vertex="1" parent="1">
          <mxGeometry x="1180" y="-60" width="170" height="190" as="geometry" />
        </mxCell>
        <mxCell id="11wZY2oROPmIKHLb7UKP-2" value="- HeadorTail: int&lt;br&gt;- ObjectPorts:&amp;nbsp;Port[]" style="text;strokeColor=none;fillColor=none;align=left;verticalAlign=top;spacingLeft=4;spacingRight=4;overflow=hidden;rotatable=0;points=[[0,0.5],[1,0.5]];portConstraint=eastwest;whiteSpace=wrap;html=1;" vertex="1" parent="11wZY2oROPmIKHLb7UKP-1">
          <mxGeometry y="26" width="170" height="34" as="geometry" />
        </mxCell>
        <mxCell id="11wZY2oROPmIKHLb7UKP-3" value="" style="line;strokeWidth=1;fillColor=none;align=left;verticalAlign=middle;spacingTop=-1;spacingLeft=3;spacingRight=3;rotatable=0;labelPosition=right;points=[];portConstraint=eastwest;strokeColor=inherit;" vertex="1" parent="11wZY2oROPmIKHLb7UKP-1">
          <mxGeometry y="60" width="170" height="8" as="geometry" />
        </mxCell>
        <mxCell id="11wZY2oROPmIKHLb7UKP-4" value="+&amp;nbsp;inside(int,&amp;nbsp;int&lt;span style=&quot;background-color: initial;&quot;&gt;):&amp;nbsp;&lt;/span&gt;int&lt;br&gt;+&amp;nbsp;MoveLocation&lt;span style=&quot;background-color: initial;&quot;&gt;(int,&amp;nbsp;int&lt;/span&gt;&lt;span style=&quot;background-color: initial; border-color: var(--border-color);&quot;&gt;): void&lt;/span&gt;&lt;br&gt;+&amp;nbsp;SetPorts&lt;span style=&quot;background-color: initial;&quot;&gt;(Port, Port): void&lt;/span&gt;&lt;br&gt;+&amp;nbsp;ResetPort&lt;span style=&quot;background-color: initial;&quot;&gt;(Port): void&lt;/span&gt;&lt;br&gt;+&amp;nbsp;GetPort&lt;span style=&quot;background-color: initial;&quot;&gt;(): Port&lt;/span&gt;&lt;br&gt;+&amp;nbsp;GetAnotherPort&lt;span style=&quot;background-color: initial;&quot;&gt;():&amp;nbsp;&lt;/span&gt;Port&lt;br&gt;+&amp;nbsp;GetInitialxy(): int[]&lt;span style=&quot;background-color: initial;&quot;&gt;&lt;/span&gt;&lt;br&gt;+&amp;nbsp;resetLocation&lt;span style=&quot;background-color: initial;&quot;&gt;(): void&lt;/span&gt;" style="text;strokeColor=none;fillColor=none;align=left;verticalAlign=top;spacingLeft=4;spacingRight=4;overflow=hidden;rotatable=0;points=[[0,0.5],[1,0.5]];portConstraint=eastwest;whiteSpace=wrap;html=1;" vertex="1" parent="11wZY2oROPmIKHLb7UKP-1">
          <mxGeometry y="68" width="170" height="122" as="geometry" />
        </mxCell>
        <mxCell id="11wZY2oROPmIKHLb7UKP-5" value="AssociationLine" style="swimlane;fontStyle=1;align=center;verticalAlign=top;childLayout=stackLayout;horizontal=1;startSize=26;horizontalStack=0;resizeParent=1;resizeParentMax=0;resizeLast=0;collapsible=1;marginBottom=0;whiteSpace=wrap;html=1;" vertex="1" parent="1">
          <mxGeometry x="1440" y="-110" width="190" height="110" as="geometry" />
        </mxCell>
        <mxCell id="11wZY2oROPmIKHLb7UKP-6" value="- ArrowWidth: int&lt;br&gt;- ArrowHeight: int" style="text;strokeColor=none;fillColor=none;align=left;verticalAlign=top;spacingLeft=4;spacingRight=4;overflow=hidden;rotatable=0;points=[[0,0.5],[1,0.5]];portConstraint=eastwest;whiteSpace=wrap;html=1;" vertex="1" parent="11wZY2oROPmIKHLb7UKP-5">
          <mxGeometry y="26" width="190" height="34" as="geometry" />
        </mxCell>
        <mxCell id="11wZY2oROPmIKHLb7UKP-7" value="" style="line;strokeWidth=1;fillColor=none;align=left;verticalAlign=middle;spacingTop=-1;spacingLeft=3;spacingRight=3;rotatable=0;labelPosition=right;points=[];portConstraint=eastwest;strokeColor=inherit;" vertex="1" parent="11wZY2oROPmIKHLb7UKP-5">
          <mxGeometry y="60" width="190" height="8" as="geometry" />
        </mxCell>
        <mxCell id="11wZY2oROPmIKHLb7UKP-8" value="+&amp;nbsp;AssociationLine(int,&amp;nbsp;int, int,&amp;nbsp;int&lt;span style=&quot;background-color: initial;&quot;&gt;)&lt;/span&gt;&lt;br&gt;+&amp;nbsp;draw&lt;span style=&quot;background-color: initial;&quot;&gt;(&lt;/span&gt;&lt;span style=&quot;background-color: initial; border-color: var(--border-color);&quot;&gt;Graphics): void&lt;/span&gt;" style="text;strokeColor=none;fillColor=none;align=left;verticalAlign=top;spacingLeft=4;spacingRight=4;overflow=hidden;rotatable=0;points=[[0,0.5],[1,0.5]];portConstraint=eastwest;whiteSpace=wrap;html=1;" vertex="1" parent="11wZY2oROPmIKHLb7UKP-5">
          <mxGeometry y="68" width="190" height="42" as="geometry" />
        </mxCell>
        <mxCell id="11wZY2oROPmIKHLb7UKP-9" value="CompositionLine" style="swimlane;fontStyle=1;align=center;verticalAlign=top;childLayout=stackLayout;horizontal=1;startSize=26;horizontalStack=0;resizeParent=1;resizeParentMax=0;resizeLast=0;collapsible=1;marginBottom=0;whiteSpace=wrap;html=1;" vertex="1" parent="1">
          <mxGeometry x="1440" y="22" width="190" height="110" as="geometry" />
        </mxCell>
        <mxCell id="11wZY2oROPmIKHLb7UKP-10" value="- ArrowWidth: int&lt;br&gt;- ArrowHeight: int" style="text;strokeColor=none;fillColor=none;align=left;verticalAlign=top;spacingLeft=4;spacingRight=4;overflow=hidden;rotatable=0;points=[[0,0.5],[1,0.5]];portConstraint=eastwest;whiteSpace=wrap;html=1;" vertex="1" parent="11wZY2oROPmIKHLb7UKP-9">
          <mxGeometry y="26" width="190" height="34" as="geometry" />
        </mxCell>
        <mxCell id="11wZY2oROPmIKHLb7UKP-11" value="" style="line;strokeWidth=1;fillColor=none;align=left;verticalAlign=middle;spacingTop=-1;spacingLeft=3;spacingRight=3;rotatable=0;labelPosition=right;points=[];portConstraint=eastwest;strokeColor=inherit;" vertex="1" parent="11wZY2oROPmIKHLb7UKP-9">
          <mxGeometry y="60" width="190" height="8" as="geometry" />
        </mxCell>
        <mxCell id="11wZY2oROPmIKHLb7UKP-12" value="+&amp;nbsp;CompositionLine(int,&amp;nbsp;int, int,&amp;nbsp;int&lt;span style=&quot;background-color: initial;&quot;&gt;)&lt;/span&gt;&lt;br&gt;+&amp;nbsp;draw&lt;span style=&quot;background-color: initial;&quot;&gt;(&lt;/span&gt;&lt;span style=&quot;background-color: initial; border-color: var(--border-color);&quot;&gt;Graphics): void&lt;/span&gt;" style="text;strokeColor=none;fillColor=none;align=left;verticalAlign=top;spacingLeft=4;spacingRight=4;overflow=hidden;rotatable=0;points=[[0,0.5],[1,0.5]];portConstraint=eastwest;whiteSpace=wrap;html=1;" vertex="1" parent="11wZY2oROPmIKHLb7UKP-9">
          <mxGeometry y="68" width="190" height="42" as="geometry" />
        </mxCell>
        <mxCell id="11wZY2oROPmIKHLb7UKP-13" value="GeneralizationLine" style="swimlane;fontStyle=1;align=center;verticalAlign=top;childLayout=stackLayout;horizontal=1;startSize=26;horizontalStack=0;resizeParent=1;resizeParentMax=0;resizeLast=0;collapsible=1;marginBottom=0;whiteSpace=wrap;html=1;" vertex="1" parent="1">
          <mxGeometry x="1440" y="166" width="200" height="110" as="geometry" />
        </mxCell>
        <mxCell id="11wZY2oROPmIKHLb7UKP-14" value="- ArrowWidth: int&lt;br&gt;- ArrowHeight: int" style="text;strokeColor=none;fillColor=none;align=left;verticalAlign=top;spacingLeft=4;spacingRight=4;overflow=hidden;rotatable=0;points=[[0,0.5],[1,0.5]];portConstraint=eastwest;whiteSpace=wrap;html=1;" vertex="1" parent="11wZY2oROPmIKHLb7UKP-13">
          <mxGeometry y="26" width="200" height="34" as="geometry" />
        </mxCell>
        <mxCell id="11wZY2oROPmIKHLb7UKP-15" value="" style="line;strokeWidth=1;fillColor=none;align=left;verticalAlign=middle;spacingTop=-1;spacingLeft=3;spacingRight=3;rotatable=0;labelPosition=right;points=[];portConstraint=eastwest;strokeColor=inherit;" vertex="1" parent="11wZY2oROPmIKHLb7UKP-13">
          <mxGeometry y="60" width="200" height="8" as="geometry" />
        </mxCell>
        <mxCell id="11wZY2oROPmIKHLb7UKP-16" value="+&amp;nbsp;GeneralizationLine(int,&amp;nbsp;int, int,&amp;nbsp;int&lt;span style=&quot;background-color: initial;&quot;&gt;)&lt;/span&gt;&lt;br&gt;+&amp;nbsp;draw&lt;span style=&quot;background-color: initial;&quot;&gt;(&lt;/span&gt;&lt;span style=&quot;background-color: initial; border-color: var(--border-color);&quot;&gt;Graphics): void&lt;/span&gt;" style="text;strokeColor=none;fillColor=none;align=left;verticalAlign=top;spacingLeft=4;spacingRight=4;overflow=hidden;rotatable=0;points=[[0,0.5],[1,0.5]];portConstraint=eastwest;whiteSpace=wrap;html=1;" vertex="1" parent="11wZY2oROPmIKHLb7UKP-13">
          <mxGeometry y="68" width="200" height="42" as="geometry" />
        </mxCell>
        <mxCell id="11wZY2oROPmIKHLb7UKP-17" value="BasicObject" style="swimlane;fontStyle=1;align=center;verticalAlign=top;childLayout=stackLayout;horizontal=1;startSize=26;horizontalStack=0;resizeParent=1;resizeParentMax=0;resizeLast=0;collapsible=1;marginBottom=0;whiteSpace=wrap;html=1;" vertex="1" parent="1">
          <mxGeometry x="890" y="300" width="170" height="210" as="geometry" />
        </mxCell>
        <mxCell id="11wZY2oROPmIKHLb7UKP-18" value="# width: int&lt;br&gt;#&amp;nbsp;height&lt;span style=&quot;background-color: initial;&quot;&gt;: int&lt;br&gt;&lt;/span&gt;#&amp;nbsp;ObjectName: String&lt;br&gt;- ObjectPorts:&amp;nbsp;Port[]" style="text;strokeColor=none;fillColor=none;align=left;verticalAlign=top;spacingLeft=4;spacingRight=4;overflow=hidden;rotatable=0;points=[[0,0.5],[1,0.5]];portConstraint=eastwest;whiteSpace=wrap;html=1;" vertex="1" parent="11wZY2oROPmIKHLb7UKP-17">
          <mxGeometry y="26" width="170" height="64" as="geometry" />
        </mxCell>
        <mxCell id="11wZY2oROPmIKHLb7UKP-19" value="" style="line;strokeWidth=1;fillColor=none;align=left;verticalAlign=middle;spacingTop=-1;spacingLeft=3;spacingRight=3;rotatable=0;labelPosition=right;points=[];portConstraint=eastwest;strokeColor=inherit;" vertex="1" parent="11wZY2oROPmIKHLb7UKP-17">
          <mxGeometry y="90" width="170" height="8" as="geometry" />
        </mxCell>
        <mxCell id="11wZY2oROPmIKHLb7UKP-20" value="# CreatePorts(&lt;span style=&quot;background-color: initial;&quot;&gt;):&amp;nbsp;&lt;/span&gt;void&lt;br&gt;+&amp;nbsp;ShowPorts&lt;span style=&quot;background-color: initial;&quot;&gt;(&lt;/span&gt;&lt;span style=&quot;background-color: initial; border-color: var(--border-color);&quot;&gt;Graphics): void&lt;/span&gt;&lt;br&gt;+&amp;nbsp;inside(int, int): int&lt;span style=&quot;background-color: initial;&quot;&gt;&lt;/span&gt;&lt;br&gt;+&amp;nbsp;MoveLocation&lt;span style=&quot;background-color: initial;&quot;&gt;(int, int): void&lt;/span&gt;&lt;br&gt;+&amp;nbsp;GetPort&lt;span style=&quot;background-color: initial;&quot;&gt;(int): Port&lt;/span&gt;&lt;br&gt;+&amp;nbsp;SwitchPort(int, int&lt;span style=&quot;background-color: initial;&quot;&gt;):&amp;nbsp;&lt;/span&gt;int&lt;br&gt;+&amp;nbsp;ChangeName(String): void" style="text;strokeColor=none;fillColor=none;align=left;verticalAlign=top;spacingLeft=4;spacingRight=4;overflow=hidden;rotatable=0;points=[[0,0.5],[1,0.5]];portConstraint=eastwest;whiteSpace=wrap;html=1;" vertex="1" parent="11wZY2oROPmIKHLb7UKP-17">
          <mxGeometry y="98" width="170" height="112" as="geometry" />
        </mxCell>
        <mxCell id="11wZY2oROPmIKHLb7UKP-21" value="Class" style="swimlane;fontStyle=1;align=center;verticalAlign=top;childLayout=stackLayout;horizontal=1;startSize=26;horizontalStack=0;resizeParent=1;resizeParentMax=0;resizeLast=0;collapsible=1;marginBottom=0;whiteSpace=wrap;html=1;" vertex="1" parent="1">
          <mxGeometry x="630" y="300" width="140" height="76" as="geometry" />
        </mxCell>
        <mxCell id="11wZY2oROPmIKHLb7UKP-22" value="" style="line;strokeWidth=1;fillColor=none;align=left;verticalAlign=middle;spacingTop=-1;spacingLeft=3;spacingRight=3;rotatable=0;labelPosition=right;points=[];portConstraint=eastwest;strokeColor=inherit;" vertex="1" parent="11wZY2oROPmIKHLb7UKP-21">
          <mxGeometry y="26" width="140" height="8" as="geometry" />
        </mxCell>
        <mxCell id="11wZY2oROPmIKHLb7UKP-23" value="+&amp;nbsp;Class(int,&amp;nbsp;int&lt;span style=&quot;background-color: initial;&quot;&gt;)&lt;/span&gt;&lt;br&gt;+&amp;nbsp;draw&lt;span style=&quot;background-color: initial;&quot;&gt;(&lt;/span&gt;&lt;span style=&quot;background-color: initial; border-color: var(--border-color);&quot;&gt;Graphics): void&lt;/span&gt;" style="text;strokeColor=none;fillColor=none;align=left;verticalAlign=top;spacingLeft=4;spacingRight=4;overflow=hidden;rotatable=0;points=[[0,0.5],[1,0.5]];portConstraint=eastwest;whiteSpace=wrap;html=1;" vertex="1" parent="11wZY2oROPmIKHLb7UKP-21">
          <mxGeometry y="34" width="140" height="42" as="geometry" />
        </mxCell>
        <mxCell id="11wZY2oROPmIKHLb7UKP-24" value="UseCase" style="swimlane;fontStyle=1;align=center;verticalAlign=top;childLayout=stackLayout;horizontal=1;startSize=26;horizontalStack=0;resizeParent=1;resizeParentMax=0;resizeLast=0;collapsible=1;marginBottom=0;whiteSpace=wrap;html=1;" vertex="1" parent="1">
          <mxGeometry x="630" y="400" width="140" height="76" as="geometry" />
        </mxCell>
        <mxCell id="11wZY2oROPmIKHLb7UKP-25" value="" style="line;strokeWidth=1;fillColor=none;align=left;verticalAlign=middle;spacingTop=-1;spacingLeft=3;spacingRight=3;rotatable=0;labelPosition=right;points=[];portConstraint=eastwest;strokeColor=inherit;" vertex="1" parent="11wZY2oROPmIKHLb7UKP-24">
          <mxGeometry y="26" width="140" height="8" as="geometry" />
        </mxCell>
        <mxCell id="11wZY2oROPmIKHLb7UKP-26" value="+&amp;nbsp;UseCase(int,&amp;nbsp;int&lt;span style=&quot;background-color: initial;&quot;&gt;)&lt;/span&gt;&lt;br&gt;+&amp;nbsp;draw&lt;span style=&quot;background-color: initial;&quot;&gt;(&lt;/span&gt;&lt;span style=&quot;background-color: initial; border-color: var(--border-color);&quot;&gt;Graphics): void&lt;/span&gt;" style="text;strokeColor=none;fillColor=none;align=left;verticalAlign=top;spacingLeft=4;spacingRight=4;overflow=hidden;rotatable=0;points=[[0,0.5],[1,0.5]];portConstraint=eastwest;whiteSpace=wrap;html=1;" vertex="1" parent="11wZY2oROPmIKHLb7UKP-24">
          <mxGeometry y="34" width="140" height="42" as="geometry" />
        </mxCell>
        <mxCell id="11wZY2oROPmIKHLb7UKP-27" value="Port" style="swimlane;fontStyle=1;align=center;verticalAlign=top;childLayout=stackLayout;horizontal=1;startSize=26;horizontalStack=0;resizeParent=1;resizeParentMax=0;resizeLast=0;collapsible=1;marginBottom=0;whiteSpace=wrap;html=1;" vertex="1" parent="1">
          <mxGeometry x="1140" y="280" width="250" height="220" as="geometry" />
        </mxCell>
        <mxCell id="11wZY2oROPmIKHLb7UKP-28" value="+ x: int&lt;br style=&quot;border-color: var(--border-color);&quot;&gt;+ y: int&lt;br&gt;+ width: int&lt;br style=&quot;border-color: var(--border-color);&quot;&gt;+ height: int&lt;br&gt;+ ConnectionBasicObject: BasicObject&lt;br&gt;- ConnectionLineList: List&amp;lt;ConnectionLine&amp;gt;" style="text;strokeColor=none;fillColor=none;align=left;verticalAlign=top;spacingLeft=4;spacingRight=4;overflow=hidden;rotatable=0;points=[[0,0.5],[1,0.5]];portConstraint=eastwest;whiteSpace=wrap;html=1;" vertex="1" parent="11wZY2oROPmIKHLb7UKP-27">
          <mxGeometry y="26" width="250" height="94" as="geometry" />
        </mxCell>
        <mxCell id="11wZY2oROPmIKHLb7UKP-29" value="" style="line;strokeWidth=1;fillColor=none;align=left;verticalAlign=middle;spacingTop=-1;spacingLeft=3;spacingRight=3;rotatable=0;labelPosition=right;points=[];portConstraint=eastwest;strokeColor=inherit;" vertex="1" parent="11wZY2oROPmIKHLb7UKP-27">
          <mxGeometry y="120" width="250" height="8" as="geometry" />
        </mxCell>
        <mxCell id="11wZY2oROPmIKHLb7UKP-30" value="+&amp;nbsp;Port(BasicObject)&lt;br&gt;+&amp;nbsp;setPort(int,&amp;nbsp;int):&amp;nbsp;void&lt;br&gt;+&amp;nbsp;getxy():&amp;nbsp;int[]&lt;br&gt;+&amp;nbsp;addLine(ConnectionLine):&amp;nbsp;void&lt;br&gt;+&amp;nbsp;removeLine(ConnectionLine):&amp;nbsp;void&lt;br&gt;+&amp;nbsp;resetLines&lt;span style=&quot;background-color: initial;&quot;&gt;():&amp;nbsp;&lt;/span&gt;void" style="text;strokeColor=none;fillColor=none;align=left;verticalAlign=top;spacingLeft=4;spacingRight=4;overflow=hidden;rotatable=0;points=[[0,0.5],[1,0.5]];portConstraint=eastwest;whiteSpace=wrap;html=1;" vertex="1" parent="11wZY2oROPmIKHLb7UKP-27">
          <mxGeometry y="128" width="250" height="92" as="geometry" />
        </mxCell>
        <mxCell id="11wZY2oROPmIKHLb7UKP-31" value="Group" style="swimlane;fontStyle=1;align=center;verticalAlign=top;childLayout=stackLayout;horizontal=1;startSize=26;horizontalStack=0;resizeParent=1;resizeParentMax=0;resizeLast=0;collapsible=1;marginBottom=0;whiteSpace=wrap;html=1;" vertex="1" parent="1">
          <mxGeometry x="540" y="-60" width="230" height="190" as="geometry" />
        </mxCell>
        <mxCell id="11wZY2oROPmIKHLb7UKP-32" value="- width: int&lt;br style=&quot;border-color: var(--border-color);&quot;&gt;- height: int&lt;br&gt;- bound: int&lt;br&gt;- GroupObjectList: ArrayList&amp;lt;graph&amp;gt;" style="text;strokeColor=none;fillColor=none;align=left;verticalAlign=top;spacingLeft=4;spacingRight=4;overflow=hidden;rotatable=0;points=[[0,0.5],[1,0.5]];portConstraint=eastwest;whiteSpace=wrap;html=1;" vertex="1" parent="11wZY2oROPmIKHLb7UKP-31">
          <mxGeometry y="26" width="230" height="64" as="geometry" />
        </mxCell>
        <mxCell id="11wZY2oROPmIKHLb7UKP-33" value="" style="line;strokeWidth=1;fillColor=none;align=left;verticalAlign=middle;spacingTop=-1;spacingLeft=3;spacingRight=3;rotatable=0;labelPosition=right;points=[];portConstraint=eastwest;strokeColor=inherit;" vertex="1" parent="11wZY2oROPmIKHLb7UKP-31">
          <mxGeometry y="90" width="230" height="8" as="geometry" />
        </mxCell>
        <mxCell id="11wZY2oROPmIKHLb7UKP-34" value="+&amp;nbsp;setBound(int,&amp;nbsp;int, int,&amp;nbsp;int): void&lt;br&gt;+&amp;nbsp;addGraphs&lt;span style=&quot;background-color: initial;&quot;&gt;(ArrayList&amp;lt;graph&amp;gt;):&amp;nbsp;void&lt;/span&gt;&lt;br&gt;+&amp;nbsp;draw(Graphics&lt;span style=&quot;background-color: initial;&quot;&gt;):&amp;nbsp;void&lt;/span&gt;&lt;br&gt;+&amp;nbsp;inside(int,&amp;nbsp;int):&amp;nbsp;int&lt;span style=&quot;background-color: initial;&quot;&gt;&lt;/span&gt;&lt;br&gt;+&amp;nbsp;MoveLocation(int,&amp;nbsp;int&lt;span style=&quot;background-color: initial;&quot;&gt;):&amp;nbsp;void&lt;/span&gt;&lt;br&gt;+&amp;nbsp;getGroupObjectList&lt;span style=&quot;background-color: initial;&quot;&gt;():&amp;nbsp;&lt;/span&gt;ArrayList&amp;lt;graph&amp;gt;" style="text;strokeColor=none;fillColor=none;align=left;verticalAlign=top;spacingLeft=4;spacingRight=4;overflow=hidden;rotatable=0;points=[[0,0.5],[1,0.5]];portConstraint=eastwest;whiteSpace=wrap;html=1;" vertex="1" parent="11wZY2oROPmIKHLb7UKP-31">
          <mxGeometry y="98" width="230" height="92" as="geometry" />
        </mxCell>
        <mxCell id="11wZY2oROPmIKHLb7UKP-35" value="graph" style="swimlane;fontStyle=1;align=center;verticalAlign=top;childLayout=stackLayout;horizontal=1;startSize=26;horizontalStack=0;resizeParent=1;resizeParentMax=0;resizeLast=0;collapsible=1;marginBottom=0;whiteSpace=wrap;html=1;" vertex="1" parent="1">
          <mxGeometry x="890" y="-60" width="170" height="260" as="geometry" />
        </mxCell>
        <mxCell id="11wZY2oROPmIKHLb7UKP-36" value="#&amp;nbsp;x1&lt;span style=&quot;background-color: initial;&quot;&gt;: int&lt;/span&gt;&lt;br&gt;#&amp;nbsp;y1&lt;span style=&quot;background-color: initial;&quot;&gt;: int&lt;br&gt;&lt;/span&gt;#&amp;nbsp;x2: int&lt;br style=&quot;border-color: var(--border-color);&quot;&gt;#&amp;nbsp;y2&lt;span style=&quot;border-color: var(--border-color); background-color: initial;&quot;&gt;: int&lt;/span&gt;&lt;br&gt;+ InGroup&lt;span style=&quot;background-color: initial;&quot;&gt;:&amp;nbsp;&lt;/span&gt;boolean" style="text;strokeColor=none;fillColor=none;align=left;verticalAlign=top;spacingLeft=4;spacingRight=4;overflow=hidden;rotatable=0;points=[[0,0.5],[1,0.5]];portConstraint=eastwest;whiteSpace=wrap;html=1;" vertex="1" parent="11wZY2oROPmIKHLb7UKP-35">
          <mxGeometry y="26" width="170" height="74" as="geometry" />
        </mxCell>
        <mxCell id="11wZY2oROPmIKHLb7UKP-37" value="" style="line;strokeWidth=1;fillColor=none;align=left;verticalAlign=middle;spacingTop=-1;spacingLeft=3;spacingRight=3;rotatable=0;labelPosition=right;points=[];portConstraint=eastwest;strokeColor=inherit;" vertex="1" parent="11wZY2oROPmIKHLb7UKP-35">
          <mxGeometry y="100" width="170" height="8" as="geometry" />
        </mxCell>
        <mxCell id="11wZY2oROPmIKHLb7UKP-38" value="+&amp;nbsp;getx1&lt;span style=&quot;background-color: initial;&quot;&gt;(&lt;/span&gt;&lt;span style=&quot;background-color: initial; border-color: var(--border-color);&quot;&gt;):&amp;nbsp;int&lt;br&gt;+&amp;nbsp;gety1(&lt;span style=&quot;border-color: var(--border-color); background-color: initial;&quot;&gt;):&amp;nbsp;int&lt;br&gt;&lt;/span&gt;+&amp;nbsp;getx2(&lt;span style=&quot;border-color: var(--border-color); background-color: initial;&quot;&gt;):&amp;nbsp;int&lt;br&gt;&lt;/span&gt;+&amp;nbsp;gety2(&lt;span style=&quot;border-color: var(--border-color); background-color: initial;&quot;&gt;):&amp;nbsp;int&lt;/span&gt;&lt;br&gt;&lt;/span&gt;+&amp;nbsp;draw&lt;span style=&quot;background-color: initial;&quot;&gt;(Graphics):&amp;nbsp;&lt;/span&gt;void&lt;br&gt;+&amp;nbsp;inside(int, int): int&lt;span style=&quot;background-color: initial;&quot;&gt;&lt;/span&gt;&lt;br&gt;+&amp;nbsp;MoveLocation(int, int&lt;span style=&quot;background-color: initial;&quot;&gt;):&amp;nbsp;&lt;/span&gt;void&lt;br&gt;+&amp;nbsp;GetPort(): Port&lt;br&gt;+&amp;nbsp;GetPort&lt;span style=&quot;background-color: initial;&quot;&gt;(int&lt;/span&gt;): Port&lt;br&gt;+&amp;nbsp;ShowPorts(Graphics): void" style="text;strokeColor=none;fillColor=none;align=left;verticalAlign=top;spacingLeft=4;spacingRight=4;overflow=hidden;rotatable=0;points=[[0,0.5],[1,0.5]];portConstraint=eastwest;whiteSpace=wrap;html=1;" vertex="1" parent="11wZY2oROPmIKHLb7UKP-35">
          <mxGeometry y="108" width="170" height="152" as="geometry" />
        </mxCell>
        <mxCell id="11wZY2oROPmIKHLb7UKP-39" value="MouseEventListener" style="swimlane;fontStyle=1;align=center;verticalAlign=top;childLayout=stackLayout;horizontal=1;startSize=26;horizontalStack=0;resizeParent=1;resizeParentMax=0;resizeLast=0;collapsible=1;marginBottom=0;whiteSpace=wrap;html=1;" vertex="1" parent="1">
          <mxGeometry x="1540" y="-420" width="220" height="140" as="geometry" />
        </mxCell>
        <mxCell id="11wZY2oROPmIKHLb7UKP-40" value="" style="line;strokeWidth=1;fillColor=none;align=left;verticalAlign=middle;spacingTop=-1;spacingLeft=3;spacingRight=3;rotatable=0;labelPosition=right;points=[];portConstraint=eastwest;strokeColor=inherit;" vertex="1" parent="11wZY2oROPmIKHLb7UKP-39">
          <mxGeometry y="26" width="220" height="8" as="geometry" />
        </mxCell>
        <mxCell id="11wZY2oROPmIKHLb7UKP-41" value="+&amp;nbsp;mouseClicked&lt;span style=&quot;background-color: initial;&quot;&gt;(&lt;/span&gt;&lt;span style=&quot;background-color: initial; border-color: var(--border-color);&quot;&gt;MouseEvent): void&lt;br&gt;+&amp;nbsp;mousePressed&lt;span style=&quot;background-color: initial;&quot;&gt;(&lt;/span&gt;&lt;span style=&quot;background-color: initial; border-color: var(--border-color);&quot;&gt;MouseEvent): void&lt;/span&gt;&lt;br&gt;+&amp;nbsp;mouseReleased&lt;span style=&quot;background-color: initial;&quot;&gt;(&lt;/span&gt;&lt;span style=&quot;background-color: initial; border-color: var(--border-color);&quot;&gt;MouseEvent): void&lt;/span&gt;&lt;br&gt;+&amp;nbsp;mouseEntered&lt;span style=&quot;background-color: initial;&quot;&gt;(&lt;/span&gt;&lt;span style=&quot;background-color: initial; border-color: var(--border-color);&quot;&gt;MouseEvent): void&lt;/span&gt;&lt;br&gt;+&amp;nbsp;mouseExited&lt;span style=&quot;background-color: initial;&quot;&gt;(&lt;/span&gt;&lt;span style=&quot;background-color: initial; border-color: var(--border-color);&quot;&gt;MouseEvent): void&lt;/span&gt;&lt;br&gt;+&amp;nbsp;mouseDragged&lt;span style=&quot;background-color: initial;&quot;&gt;(&lt;/span&gt;&lt;span style=&quot;background-color: initial; border-color: var(--border-color);&quot;&gt;MouseEvent): void&lt;/span&gt;&lt;br&gt;+&amp;nbsp;mouseMoved&lt;/span&gt;&lt;span style=&quot;background-color: initial;&quot;&gt;(&lt;/span&gt;&lt;span style=&quot;background-color: initial; border-color: var(--border-color);&quot;&gt;MouseEvent): void&lt;/span&gt;" style="text;strokeColor=none;fillColor=none;align=left;verticalAlign=top;spacingLeft=4;spacingRight=4;overflow=hidden;rotatable=0;points=[[0,0.5],[1,0.5]];portConstraint=eastwest;whiteSpace=wrap;html=1;" vertex="1" parent="11wZY2oROPmIKHLb7UKP-39">
          <mxGeometry y="34" width="220" height="106" as="geometry" />
        </mxCell>
        <mxCell id="11wZY2oROPmIKHLb7UKP-42" value="UMLeditor" style="swimlane;fontStyle=1;align=center;verticalAlign=top;childLayout=stackLayout;horizontal=1;startSize=26;horizontalStack=0;resizeParent=1;resizeParentMax=0;resizeLast=0;collapsible=1;marginBottom=0;whiteSpace=wrap;html=1;" vertex="1" parent="1">
          <mxGeometry x="910" y="-633" width="130" height="130" as="geometry" />
        </mxCell>
        <mxCell id="11wZY2oROPmIKHLb7UKP-43" value="- menu:&amp;nbsp;Menu&lt;br&gt;- tool: Tool&lt;br&gt;- canvas: Canvas" style="text;strokeColor=none;fillColor=none;align=left;verticalAlign=top;spacingLeft=4;spacingRight=4;overflow=hidden;rotatable=0;points=[[0,0.5],[1,0.5]];portConstraint=eastwest;whiteSpace=wrap;html=1;" vertex="1" parent="11wZY2oROPmIKHLb7UKP-42">
          <mxGeometry y="26" width="130" height="54" as="geometry" />
        </mxCell>
        <mxCell id="11wZY2oROPmIKHLb7UKP-44" value="" style="line;strokeWidth=1;fillColor=none;align=left;verticalAlign=middle;spacingTop=-1;spacingLeft=3;spacingRight=3;rotatable=0;labelPosition=right;points=[];portConstraint=eastwest;strokeColor=inherit;" vertex="1" parent="11wZY2oROPmIKHLb7UKP-42">
          <mxGeometry y="80" width="130" height="8" as="geometry" />
        </mxCell>
        <mxCell id="11wZY2oROPmIKHLb7UKP-45" value="- UMLeditor&lt;span style=&quot;background-color: initial;&quot;&gt;(&lt;/span&gt;&lt;span style=&quot;background-color: initial;&quot;&gt;)&lt;/span&gt;&lt;br&gt;&lt;u&gt;+&amp;nbsp;main&lt;span style=&quot;background-color: initial;&quot;&gt;(&lt;/span&gt;&lt;span style=&quot;background-color: initial; border-color: var(--border-color);&quot;&gt;String[]): void&lt;/span&gt;&lt;/u&gt;" style="text;strokeColor=none;fillColor=none;align=left;verticalAlign=top;spacingLeft=4;spacingRight=4;overflow=hidden;rotatable=0;points=[[0,0.5],[1,0.5]];portConstraint=eastwest;whiteSpace=wrap;html=1;" vertex="1" parent="11wZY2oROPmIKHLb7UKP-42">
          <mxGeometry y="88" width="130" height="42" as="geometry" />
        </mxCell>
        <mxCell id="11wZY2oROPmIKHLb7UKP-46" value="Tool" style="swimlane;fontStyle=1;align=center;verticalAlign=top;childLayout=stackLayout;horizontal=1;startSize=26;horizontalStack=0;resizeParent=1;resizeParentMax=0;resizeLast=0;collapsible=1;marginBottom=0;whiteSpace=wrap;html=1;" vertex="1" parent="1">
          <mxGeometry x="710" y="-624" width="140" height="90" as="geometry" />
        </mxCell>
        <mxCell id="11wZY2oROPmIKHLb7UKP-47" value="- button_pushed:&amp;nbsp;Button&lt;br&gt;- canvas: Canvas" style="text;strokeColor=none;fillColor=none;align=left;verticalAlign=top;spacingLeft=4;spacingRight=4;overflow=hidden;rotatable=0;points=[[0,0.5],[1,0.5]];portConstraint=eastwest;whiteSpace=wrap;html=1;" vertex="1" parent="11wZY2oROPmIKHLb7UKP-46">
          <mxGeometry y="26" width="140" height="34" as="geometry" />
        </mxCell>
        <mxCell id="11wZY2oROPmIKHLb7UKP-48" value="" style="line;strokeWidth=1;fillColor=none;align=left;verticalAlign=middle;spacingTop=-1;spacingLeft=3;spacingRight=3;rotatable=0;labelPosition=right;points=[];portConstraint=eastwest;strokeColor=inherit;" vertex="1" parent="11wZY2oROPmIKHLb7UKP-46">
          <mxGeometry y="60" width="140" height="8" as="geometry" />
        </mxCell>
        <mxCell id="11wZY2oROPmIKHLb7UKP-49" value="+ Tool&lt;span style=&quot;background-color: initial;&quot;&gt;(&lt;/span&gt;&lt;span style=&quot;background-color: initial;&quot;&gt;)&lt;/span&gt;" style="text;strokeColor=none;fillColor=none;align=left;verticalAlign=top;spacingLeft=4;spacingRight=4;overflow=hidden;rotatable=0;points=[[0,0.5],[1,0.5]];portConstraint=eastwest;whiteSpace=wrap;html=1;" vertex="1" parent="11wZY2oROPmIKHLb7UKP-46">
          <mxGeometry y="68" width="140" height="22" as="geometry" />
        </mxCell>
        <mxCell id="11wZY2oROPmIKHLb7UKP-50" value="Button" style="swimlane;fontStyle=1;align=center;verticalAlign=top;childLayout=stackLayout;horizontal=1;startSize=26;horizontalStack=0;resizeParent=1;resizeParentMax=0;resizeLast=0;collapsible=1;marginBottom=0;whiteSpace=wrap;html=1;" vertex="1" parent="1">
          <mxGeometry x="470" y="-655.25" width="180" height="80" as="geometry" />
        </mxCell>
        <mxCell id="11wZY2oROPmIKHLb7UKP-51" value="- Toolnum:&amp;nbsp;int" style="text;strokeColor=none;fillColor=none;align=left;verticalAlign=top;spacingLeft=4;spacingRight=4;overflow=hidden;rotatable=0;points=[[0,0.5],[1,0.5]];portConstraint=eastwest;whiteSpace=wrap;html=1;" vertex="1" parent="11wZY2oROPmIKHLb7UKP-50">
          <mxGeometry y="26" width="180" height="24" as="geometry" />
        </mxCell>
        <mxCell id="11wZY2oROPmIKHLb7UKP-52" value="" style="line;strokeWidth=1;fillColor=none;align=left;verticalAlign=middle;spacingTop=-1;spacingLeft=3;spacingRight=3;rotatable=0;labelPosition=right;points=[];portConstraint=eastwest;strokeColor=inherit;" vertex="1" parent="11wZY2oROPmIKHLb7UKP-50">
          <mxGeometry y="50" width="180" height="8" as="geometry" />
        </mxCell>
        <mxCell id="11wZY2oROPmIKHLb7UKP-53" value="+ Button(String,&amp;nbsp;ImageIcon,&amp;nbsp;int&lt;span style=&quot;background-color: initial;&quot;&gt;)&lt;/span&gt;" style="text;strokeColor=none;fillColor=none;align=left;verticalAlign=top;spacingLeft=4;spacingRight=4;overflow=hidden;rotatable=0;points=[[0,0.5],[1,0.5]];portConstraint=eastwest;whiteSpace=wrap;html=1;" vertex="1" parent="11wZY2oROPmIKHLb7UKP-50">
          <mxGeometry y="58" width="180" height="22" as="geometry" />
        </mxCell>
        <mxCell id="11wZY2oROPmIKHLb7UKP-54" value="buttonListener" style="swimlane;fontStyle=1;align=center;verticalAlign=top;childLayout=stackLayout;horizontal=1;startSize=26;horizontalStack=0;resizeParent=1;resizeParentMax=0;resizeLast=0;collapsible=1;marginBottom=0;whiteSpace=wrap;html=1;" vertex="1" parent="1">
          <mxGeometry x="440" y="-540" width="210" height="56" as="geometry" />
        </mxCell>
        <mxCell id="11wZY2oROPmIKHLb7UKP-55" value="" style="line;strokeWidth=1;fillColor=none;align=left;verticalAlign=middle;spacingTop=-1;spacingLeft=3;spacingRight=3;rotatable=0;labelPosition=right;points=[];portConstraint=eastwest;strokeColor=inherit;" vertex="1" parent="11wZY2oROPmIKHLb7UKP-54">
          <mxGeometry y="26" width="210" height="8" as="geometry" />
        </mxCell>
        <mxCell id="11wZY2oROPmIKHLb7UKP-56" value="+ actionPerformed(ActionEvent&lt;span style=&quot;background-color: initial;&quot;&gt;):&amp;nbsp;&lt;/span&gt;void" style="text;strokeColor=none;fillColor=none;align=left;verticalAlign=top;spacingLeft=4;spacingRight=4;overflow=hidden;rotatable=0;points=[[0,0.5],[1,0.5]];portConstraint=eastwest;whiteSpace=wrap;html=1;" vertex="1" parent="11wZY2oROPmIKHLb7UKP-54">
          <mxGeometry y="34" width="210" height="22" as="geometry" />
        </mxCell>
        <mxCell id="11wZY2oROPmIKHLb7UKP-57" value="Menu" style="swimlane;fontStyle=1;align=center;verticalAlign=top;childLayout=stackLayout;horizontal=1;startSize=26;horizontalStack=0;resizeParent=1;resizeParentMax=0;resizeLast=0;collapsible=1;marginBottom=0;whiteSpace=wrap;html=1;" vertex="1" parent="1">
          <mxGeometry x="1110" y="-619" width="110" height="80" as="geometry" />
        </mxCell>
        <mxCell id="11wZY2oROPmIKHLb7UKP-58" value="- canvas: Canvas" style="text;strokeColor=none;fillColor=none;align=left;verticalAlign=top;spacingLeft=4;spacingRight=4;overflow=hidden;rotatable=0;points=[[0,0.5],[1,0.5]];portConstraint=eastwest;whiteSpace=wrap;html=1;" vertex="1" parent="11wZY2oROPmIKHLb7UKP-57">
          <mxGeometry y="26" width="110" height="24" as="geometry" />
        </mxCell>
        <mxCell id="11wZY2oROPmIKHLb7UKP-59" value="" style="line;strokeWidth=1;fillColor=none;align=left;verticalAlign=middle;spacingTop=-1;spacingLeft=3;spacingRight=3;rotatable=0;labelPosition=right;points=[];portConstraint=eastwest;strokeColor=inherit;" vertex="1" parent="11wZY2oROPmIKHLb7UKP-57">
          <mxGeometry y="50" width="110" height="8" as="geometry" />
        </mxCell>
        <mxCell id="11wZY2oROPmIKHLb7UKP-60" value="+ Menu&lt;span style=&quot;background-color: initial;&quot;&gt;(&lt;/span&gt;&lt;span style=&quot;background-color: initial;&quot;&gt;)&lt;/span&gt;" style="text;strokeColor=none;fillColor=none;align=left;verticalAlign=top;spacingLeft=4;spacingRight=4;overflow=hidden;rotatable=0;points=[[0,0.5],[1,0.5]];portConstraint=eastwest;whiteSpace=wrap;html=1;" vertex="1" parent="11wZY2oROPmIKHLb7UKP-57">
          <mxGeometry y="58" width="110" height="22" as="geometry" />
        </mxCell>
        <mxCell id="11wZY2oROPmIKHLb7UKP-61" value="GroupListener" style="swimlane;fontStyle=1;align=center;verticalAlign=top;childLayout=stackLayout;horizontal=1;startSize=26;horizontalStack=0;resizeParent=1;resizeParentMax=0;resizeLast=0;collapsible=1;marginBottom=0;whiteSpace=wrap;html=1;" vertex="1" parent="1">
          <mxGeometry x="1280" y="-700" width="210" height="56" as="geometry" />
        </mxCell>
        <mxCell id="11wZY2oROPmIKHLb7UKP-62" value="" style="line;strokeWidth=1;fillColor=none;align=left;verticalAlign=middle;spacingTop=-1;spacingLeft=3;spacingRight=3;rotatable=0;labelPosition=right;points=[];portConstraint=eastwest;strokeColor=inherit;" vertex="1" parent="11wZY2oROPmIKHLb7UKP-61">
          <mxGeometry y="26" width="210" height="8" as="geometry" />
        </mxCell>
        <mxCell id="11wZY2oROPmIKHLb7UKP-63" value="+ actionPerformed(ActionEvent&lt;span style=&quot;background-color: initial;&quot;&gt;):&amp;nbsp;&lt;/span&gt;void" style="text;strokeColor=none;fillColor=none;align=left;verticalAlign=top;spacingLeft=4;spacingRight=4;overflow=hidden;rotatable=0;points=[[0,0.5],[1,0.5]];portConstraint=eastwest;whiteSpace=wrap;html=1;" vertex="1" parent="11wZY2oROPmIKHLb7UKP-61">
          <mxGeometry y="34" width="210" height="22" as="geometry" />
        </mxCell>
        <mxCell id="11wZY2oROPmIKHLb7UKP-64" value="UngroupListener" style="swimlane;fontStyle=1;align=center;verticalAlign=top;childLayout=stackLayout;horizontal=1;startSize=26;horizontalStack=0;resizeParent=1;resizeParentMax=0;resizeLast=0;collapsible=1;marginBottom=0;whiteSpace=wrap;html=1;" vertex="1" parent="1">
          <mxGeometry x="1280" y="-619" width="210" height="56" as="geometry" />
        </mxCell>
        <mxCell id="11wZY2oROPmIKHLb7UKP-65" value="" style="line;strokeWidth=1;fillColor=none;align=left;verticalAlign=middle;spacingTop=-1;spacingLeft=3;spacingRight=3;rotatable=0;labelPosition=right;points=[];portConstraint=eastwest;strokeColor=inherit;" vertex="1" parent="11wZY2oROPmIKHLb7UKP-64">
          <mxGeometry y="26" width="210" height="8" as="geometry" />
        </mxCell>
        <mxCell id="11wZY2oROPmIKHLb7UKP-66" value="+ actionPerformed(ActionEvent&lt;span style=&quot;background-color: initial;&quot;&gt;):&amp;nbsp;&lt;/span&gt;void" style="text;strokeColor=none;fillColor=none;align=left;verticalAlign=top;spacingLeft=4;spacingRight=4;overflow=hidden;rotatable=0;points=[[0,0.5],[1,0.5]];portConstraint=eastwest;whiteSpace=wrap;html=1;" vertex="1" parent="11wZY2oROPmIKHLb7UKP-64">
          <mxGeometry y="34" width="210" height="22" as="geometry" />
        </mxCell>
        <mxCell id="11wZY2oROPmIKHLb7UKP-67" value="ChangeObjectNameListener" style="swimlane;fontStyle=1;align=center;verticalAlign=top;childLayout=stackLayout;horizontal=1;startSize=26;horizontalStack=0;resizeParent=1;resizeParentMax=0;resizeLast=0;collapsible=1;marginBottom=0;whiteSpace=wrap;html=1;" vertex="1" parent="1">
          <mxGeometry x="1280" y="-530" width="210" height="56" as="geometry" />
        </mxCell>
        <mxCell id="11wZY2oROPmIKHLb7UKP-68" value="" style="line;strokeWidth=1;fillColor=none;align=left;verticalAlign=middle;spacingTop=-1;spacingLeft=3;spacingRight=3;rotatable=0;labelPosition=right;points=[];portConstraint=eastwest;strokeColor=inherit;" vertex="1" parent="11wZY2oROPmIKHLb7UKP-67">
          <mxGeometry y="26" width="210" height="8" as="geometry" />
        </mxCell>
        <mxCell id="11wZY2oROPmIKHLb7UKP-69" value="+ actionPerformed(ActionEvent&lt;span style=&quot;background-color: initial;&quot;&gt;):&amp;nbsp;&lt;/span&gt;void" style="text;strokeColor=none;fillColor=none;align=left;verticalAlign=top;spacingLeft=4;spacingRight=4;overflow=hidden;rotatable=0;points=[[0,0.5],[1,0.5]];portConstraint=eastwest;whiteSpace=wrap;html=1;" vertex="1" parent="11wZY2oROPmIKHLb7UKP-67">
          <mxGeometry y="34" width="210" height="22" as="geometry" />
        </mxCell>
        <mxCell id="11wZY2oROPmIKHLb7UKP-70" value="Canvas" style="swimlane;fontStyle=1;align=center;verticalAlign=top;childLayout=stackLayout;horizontal=1;startSize=26;horizontalStack=0;resizeParent=1;resizeParentMax=0;resizeLast=0;collapsible=1;marginBottom=0;whiteSpace=wrap;html=1;" vertex="1" parent="1">
          <mxGeometry x="860" y="-410" width="250" height="260" as="geometry" />
        </mxCell>
        <mxCell id="11wZY2oROPmIKHLb7UKP-71" value="&lt;u&gt;- instance: Canvas&lt;br style=&quot;border-color: var(--border-color);&quot;&gt;&lt;/u&gt;- currentMode: int&lt;br&gt;- SelectedObject: graph&lt;br style=&quot;border-color: var(--border-color);&quot;&gt;- SelectedArea: Rectangle&lt;br&gt;- SelectedAreaObjectList: ArrayList&amp;lt;graph&amp;gt;&lt;br&gt;- tmpConnectionLine: ConnectionLine&lt;br&gt;-&amp;nbsp;GraphList&lt;span style=&quot;background-color: initial;&quot;&gt;:&amp;nbsp;&lt;/span&gt;ArrayList&amp;lt;graph&amp;gt;" style="text;strokeColor=none;fillColor=none;align=left;verticalAlign=top;spacingLeft=4;spacingRight=4;overflow=hidden;rotatable=0;points=[[0,0.5],[1,0.5]];portConstraint=eastwest;whiteSpace=wrap;html=1;" vertex="1" parent="11wZY2oROPmIKHLb7UKP-70">
          <mxGeometry y="26" width="250" height="104" as="geometry" />
        </mxCell>
        <mxCell id="11wZY2oROPmIKHLb7UKP-72" value="" style="line;strokeWidth=1;fillColor=none;align=left;verticalAlign=middle;spacingTop=-1;spacingLeft=3;spacingRight=3;rotatable=0;labelPosition=right;points=[];portConstraint=eastwest;strokeColor=inherit;" vertex="1" parent="11wZY2oROPmIKHLb7UKP-70">
          <mxGeometry y="130" width="250" height="8" as="geometry" />
        </mxCell>
        <mxCell id="11wZY2oROPmIKHLb7UKP-73" value="- Canvas()&lt;br&gt;&lt;u&gt;+&amp;nbsp;getInstance():&amp;nbsp;Canvas&lt;br&gt;&lt;/u&gt;+&amp;nbsp;setMode(int&lt;span style=&quot;background-color: initial;&quot;&gt;):&amp;nbsp;void&lt;/span&gt;&lt;br&gt;+&amp;nbsp;GroupObjects&lt;span style=&quot;background-color: initial;&quot;&gt;():&amp;nbsp;void&lt;/span&gt;&lt;br&gt;+&amp;nbsp;UngroupObjects():&amp;nbsp;void&lt;br&gt;+&amp;nbsp;ChangeSelectedObjectName&lt;span style=&quot;background-color: initial;&quot;&gt;(String):&amp;nbsp;&lt;/span&gt;void&lt;br&gt;+&amp;nbsp;CheckSelectedArea(graph):&amp;nbsp;boolean&lt;span style=&quot;background-color: initial;&quot;&gt;&lt;/span&gt;&lt;br&gt;+&amp;nbsp;paint(Graphics):&amp;nbsp;void" style="text;strokeColor=none;fillColor=none;align=left;verticalAlign=top;spacingLeft=4;spacingRight=4;overflow=hidden;rotatable=0;points=[[0,0.5],[1,0.5]];portConstraint=eastwest;whiteSpace=wrap;html=1;" vertex="1" parent="11wZY2oROPmIKHLb7UKP-70">
          <mxGeometry y="138" width="250" height="122" as="geometry" />
        </mxCell>
        <mxCell id="r-99u6WewFbq2nyN2_AF-15" value="" style="endArrow=open;endFill=1;endSize=12;html=1;rounded=0;exitX=-0.008;exitY=0.222;exitDx=0;exitDy=0;entryX=0;entryY=0;entryDx=0;entryDy=0;exitPerimeter=0;" edge="1" parent="11wZY2oROPmIKHLb7UKP-70" source="11wZY2oROPmIKHLb7UKP-71" target="11wZY2oROPmIKHLb7UKP-70">
          <mxGeometry width="160" relative="1" as="geometry">
            <mxPoint x="305" y="-186" as="sourcePoint" />
            <mxPoint x="198" y="10" as="targetPoint" />
            <Array as="points">
              <mxPoint x="-40" y="49" />
              <mxPoint x="-40" />
            </Array>
          </mxGeometry>
        </mxCell>
        <mxCell id="11wZY2oROPmIKHLb7UKP-74" value="CanvasListener" style="swimlane;fontStyle=1;align=center;verticalAlign=top;childLayout=stackLayout;horizontal=1;startSize=26;horizontalStack=0;resizeParent=1;resizeParentMax=0;resizeLast=0;collapsible=1;marginBottom=0;whiteSpace=wrap;html=1;" vertex="1" parent="1">
          <mxGeometry x="1230" y="-410" width="250" height="220" as="geometry" />
        </mxCell>
        <mxCell id="11wZY2oROPmIKHLb7UKP-75" value="- start_x:&amp;nbsp;int&lt;br&gt;-&amp;nbsp;start_y&lt;span style=&quot;background-color: initial;&quot;&gt;: int&lt;/span&gt;&lt;br&gt;-&amp;nbsp;mouse_is_inside: int&lt;span style=&quot;background-color: initial;&quot;&gt;&lt;/span&gt;&lt;br&gt;-&amp;nbsp;graph1&lt;span style=&quot;background-color: initial;&quot;&gt;:&amp;nbsp;&lt;/span&gt;graph&lt;br&gt;- graph2: graph&lt;br&gt;- portnum1:&amp;nbsp;int&lt;br&gt;-&amp;nbsp;portnum2&lt;span style=&quot;background-color: initial;&quot;&gt;:&amp;nbsp;&lt;/span&gt;int" style="text;strokeColor=none;fillColor=none;align=left;verticalAlign=top;spacingLeft=4;spacingRight=4;overflow=hidden;rotatable=0;points=[[0,0.5],[1,0.5]];portConstraint=eastwest;whiteSpace=wrap;html=1;" vertex="1" parent="11wZY2oROPmIKHLb7UKP-74">
          <mxGeometry y="26" width="250" height="104" as="geometry" />
        </mxCell>
        <mxCell id="11wZY2oROPmIKHLb7UKP-76" value="" style="line;strokeWidth=1;fillColor=none;align=left;verticalAlign=middle;spacingTop=-1;spacingLeft=3;spacingRight=3;rotatable=0;labelPosition=right;points=[];portConstraint=eastwest;strokeColor=inherit;" vertex="1" parent="11wZY2oROPmIKHLb7UKP-74">
          <mxGeometry y="130" width="250" height="8" as="geometry" />
        </mxCell>
        <mxCell id="11wZY2oROPmIKHLb7UKP-77" value="+&amp;nbsp;mousePressed(MouseEvent):&amp;nbsp;void&lt;br&gt;+&amp;nbsp;mouseDragged(MouseEvent&lt;span style=&quot;background-color: initial;&quot;&gt;):&amp;nbsp;void&lt;/span&gt;&lt;br&gt;+&amp;nbsp;mouseReleased(MouseEvent&lt;span style=&quot;background-color: initial;&quot;&gt;):&amp;nbsp;void&lt;/span&gt;&lt;br&gt;- FindConnetedBasicObject(int, int,&amp;nbsp;int&lt;span style=&quot;background-color: initial;&quot;&gt;):&amp;nbsp;void&lt;/span&gt;&lt;br&gt;- reConnectLine(int, int&lt;span style=&quot;background-color: initial;&quot;&gt;):&amp;nbsp;&lt;/span&gt;void" style="text;strokeColor=none;fillColor=none;align=left;verticalAlign=top;spacingLeft=4;spacingRight=4;overflow=hidden;rotatable=0;points=[[0,0.5],[1,0.5]];portConstraint=eastwest;whiteSpace=wrap;html=1;" vertex="1" parent="11wZY2oROPmIKHLb7UKP-74">
          <mxGeometry y="138" width="250" height="82" as="geometry" />
        </mxCell>
        <mxCell id="11wZY2oROPmIKHLb7UKP-78" value="" style="endArrow=diamondThin;endFill=1;endSize=24;html=1;rounded=0;entryX=1;entryY=0.25;entryDx=0;entryDy=0;exitX=0;exitY=0.5;exitDx=0;exitDy=0;" edge="1" parent="1" source="11wZY2oROPmIKHLb7UKP-61" target="11wZY2oROPmIKHLb7UKP-57">
          <mxGeometry width="160" relative="1" as="geometry">
            <mxPoint x="1660" y="-660" as="sourcePoint" />
            <mxPoint x="1820" y="-660" as="targetPoint" />
          </mxGeometry>
        </mxCell>
        <mxCell id="11wZY2oROPmIKHLb7UKP-79" value="" style="endArrow=diamondThin;endFill=1;endSize=24;html=1;rounded=0;exitX=0;exitY=0.5;exitDx=0;exitDy=0;entryX=0.971;entryY=-0.27;entryDx=0;entryDy=0;entryPerimeter=0;" edge="1" parent="1" source="11wZY2oROPmIKHLb7UKP-64" target="11wZY2oROPmIKHLb7UKP-60">
          <mxGeometry width="160" relative="1" as="geometry">
            <mxPoint x="1620" y="-510" as="sourcePoint" />
            <mxPoint x="1250" y="-550" as="targetPoint" />
          </mxGeometry>
        </mxCell>
        <mxCell id="11wZY2oROPmIKHLb7UKP-80" value="" style="endArrow=diamondThin;endFill=1;endSize=24;html=1;rounded=0;exitX=0;exitY=0.5;exitDx=0;exitDy=0;entryX=1;entryY=0.5;entryDx=0;entryDy=0;" edge="1" parent="1" source="11wZY2oROPmIKHLb7UKP-67" target="11wZY2oROPmIKHLb7UKP-60">
          <mxGeometry width="160" relative="1" as="geometry">
            <mxPoint x="1620" y="-510" as="sourcePoint" />
            <mxPoint x="1280" y="-540" as="targetPoint" />
          </mxGeometry>
        </mxCell>
        <mxCell id="11wZY2oROPmIKHLb7UKP-81" value="" style="endArrow=diamondThin;endFill=1;endSize=24;html=1;rounded=0;exitX=1;exitY=0.5;exitDx=0;exitDy=0;entryX=0;entryY=0.5;entryDx=0;entryDy=0;" edge="1" parent="1" source="11wZY2oROPmIKHLb7UKP-51" target="11wZY2oROPmIKHLb7UKP-47">
          <mxGeometry width="160" relative="1" as="geometry">
            <mxPoint x="950" y="-685" as="sourcePoint" />
            <mxPoint x="830" y="-745" as="targetPoint" />
          </mxGeometry>
        </mxCell>
        <mxCell id="11wZY2oROPmIKHLb7UKP-82" value="" style="endArrow=diamondThin;endFill=1;endSize=24;html=1;rounded=0;exitX=1;exitY=0.5;exitDx=0;exitDy=0;entryX=0;entryY=0.5;entryDx=0;entryDy=0;" edge="1" parent="1" source="11wZY2oROPmIKHLb7UKP-56" target="11wZY2oROPmIKHLb7UKP-49">
          <mxGeometry width="160" relative="1" as="geometry">
            <mxPoint x="960" y="-675" as="sourcePoint" />
            <mxPoint x="840" y="-735" as="targetPoint" />
          </mxGeometry>
        </mxCell>
        <mxCell id="11wZY2oROPmIKHLb7UKP-83" value="" style="endArrow=diamondThin;endFill=1;endSize=24;html=1;rounded=0;entryX=1;entryY=0.5;entryDx=0;entryDy=0;exitX=0;exitY=0.5;exitDx=0;exitDy=0;" edge="1" parent="1" source="11wZY2oROPmIKHLb7UKP-75" target="11wZY2oROPmIKHLb7UKP-71">
          <mxGeometry width="160" relative="1" as="geometry">
            <mxPoint x="1660" y="-230" as="sourcePoint" />
            <mxPoint x="1820" y="-230" as="targetPoint" />
          </mxGeometry>
        </mxCell>
        <mxCell id="11wZY2oROPmIKHLb7UKP-84" value="" style="endArrow=block;endSize=16;endFill=0;html=1;rounded=0;entryX=0;entryY=0.5;entryDx=0;entryDy=0;exitX=1;exitY=0.5;exitDx=0;exitDy=0;" edge="1" parent="1" source="11wZY2oROPmIKHLb7UKP-75" target="11wZY2oROPmIKHLb7UKP-41">
          <mxGeometry width="160" relative="1" as="geometry">
            <mxPoint x="1620" y="-80" as="sourcePoint" />
            <mxPoint x="1780" y="-80" as="targetPoint" />
          </mxGeometry>
        </mxCell>
        <mxCell id="11wZY2oROPmIKHLb7UKP-85" value="" style="endArrow=block;endSize=16;endFill=0;html=1;rounded=0;exitX=0;exitY=0.5;exitDx=0;exitDy=0;entryX=1.012;entryY=0.218;entryDx=0;entryDy=0;entryPerimeter=0;" edge="1" parent="1" source="11wZY2oROPmIKHLb7UKP-6" target="11wZY2oROPmIKHLb7UKP-4">
          <mxGeometry width="160" relative="1" as="geometry">
            <mxPoint x="2320" y="100" as="sourcePoint" />
            <mxPoint x="1760" y="40" as="targetPoint" />
          </mxGeometry>
        </mxCell>
        <mxCell id="11wZY2oROPmIKHLb7UKP-86" value="" style="endArrow=block;endSize=16;endFill=0;html=1;rounded=0;exitX=0;exitY=0.5;exitDx=0;exitDy=0;entryX=1;entryY=0.5;entryDx=0;entryDy=0;" edge="1" parent="1" source="11wZY2oROPmIKHLb7UKP-10" target="11wZY2oROPmIKHLb7UKP-4">
          <mxGeometry width="160" relative="1" as="geometry">
            <mxPoint x="1820" y="93" as="sourcePoint" />
            <mxPoint x="1670" y="93" as="targetPoint" />
          </mxGeometry>
        </mxCell>
        <mxCell id="11wZY2oROPmIKHLb7UKP-87" value="" style="endArrow=block;endSize=16;endFill=0;html=1;rounded=0;exitX=0;exitY=0.5;exitDx=0;exitDy=0;entryX=1.012;entryY=0.84;entryDx=0;entryDy=0;entryPerimeter=0;" edge="1" parent="1" source="11wZY2oROPmIKHLb7UKP-14" target="11wZY2oROPmIKHLb7UKP-4">
          <mxGeometry width="160" relative="1" as="geometry">
            <mxPoint x="1820" y="213" as="sourcePoint" />
            <mxPoint x="1670" y="179" as="targetPoint" />
          </mxGeometry>
        </mxCell>
        <mxCell id="11wZY2oROPmIKHLb7UKP-89" value="" style="endArrow=block;endSize=16;endFill=0;html=1;rounded=0;entryX=0;entryY=0.5;entryDx=0;entryDy=0;exitX=1;exitY=0.5;exitDx=0;exitDy=0;" edge="1" parent="1" source="11wZY2oROPmIKHLb7UKP-23" target="11wZY2oROPmIKHLb7UKP-18">
          <mxGeometry width="160" relative="1" as="geometry">
            <mxPoint x="810" y="340" as="sourcePoint" />
            <mxPoint x="1672" y="240" as="targetPoint" />
          </mxGeometry>
        </mxCell>
        <mxCell id="11wZY2oROPmIKHLb7UKP-90" value="" style="endArrow=block;endSize=16;endFill=0;html=1;rounded=0;exitX=1;exitY=0.5;exitDx=0;exitDy=0;entryX=0;entryY=0.5;entryDx=0;entryDy=0;" edge="1" parent="1" source="11wZY2oROPmIKHLb7UKP-26" target="11wZY2oROPmIKHLb7UKP-20">
          <mxGeometry width="160" relative="1" as="geometry">
            <mxPoint x="1830" y="343" as="sourcePoint" />
            <mxPoint x="1682" y="250" as="targetPoint" />
          </mxGeometry>
        </mxCell>
        <mxCell id="11wZY2oROPmIKHLb7UKP-91" value="" style="endArrow=block;endSize=16;endFill=0;html=1;rounded=0;exitX=0.007;exitY=0.828;exitDx=0;exitDy=0;entryX=1;entryY=0.5;entryDx=0;entryDy=0;exitPerimeter=0;" edge="1" parent="1" source="11wZY2oROPmIKHLb7UKP-2" target="11wZY2oROPmIKHLb7UKP-36">
          <mxGeometry width="160" relative="1" as="geometry">
            <mxPoint x="1840" y="93" as="sourcePoint" />
            <mxPoint x="1672" y="165" as="targetPoint" />
          </mxGeometry>
        </mxCell>
        <mxCell id="11wZY2oROPmIKHLb7UKP-92" value="" style="endArrow=block;endSize=16;endFill=0;html=1;rounded=0;exitX=0.5;exitY=0;exitDx=0;exitDy=0;entryX=0.496;entryY=1.002;entryDx=0;entryDy=0;entryPerimeter=0;" edge="1" parent="1" source="11wZY2oROPmIKHLb7UKP-17" target="11wZY2oROPmIKHLb7UKP-38">
          <mxGeometry width="160" relative="1" as="geometry">
            <mxPoint x="1850" y="103" as="sourcePoint" />
            <mxPoint x="1682" y="175" as="targetPoint" />
          </mxGeometry>
        </mxCell>
        <mxCell id="11wZY2oROPmIKHLb7UKP-93" value="" style="endArrow=block;endSize=16;endFill=0;html=1;rounded=0;exitX=1;exitY=0.5;exitDx=0;exitDy=0;entryX=0;entryY=0.5;entryDx=0;entryDy=0;" edge="1" parent="1" source="11wZY2oROPmIKHLb7UKP-32" target="11wZY2oROPmIKHLb7UKP-36">
          <mxGeometry width="160" relative="1" as="geometry">
            <mxPoint x="1500" y="488" as="sourcePoint" />
            <mxPoint x="1330" y="350" as="targetPoint" />
          </mxGeometry>
        </mxCell>
        <mxCell id="r-99u6WewFbq2nyN2_AF-1" value="" style="endArrow=open;endFill=1;endSize=12;html=1;rounded=0;exitX=1;exitY=0.5;exitDx=0;exitDy=0;entryX=0;entryY=0.5;entryDx=0;entryDy=0;" edge="1" parent="1" source="11wZY2oROPmIKHLb7UKP-43" target="11wZY2oROPmIKHLb7UKP-58">
          <mxGeometry width="160" relative="1" as="geometry">
            <mxPoint x="1620" y="-360" as="sourcePoint" />
            <mxPoint x="1780" y="-360" as="targetPoint" />
          </mxGeometry>
        </mxCell>
        <mxCell id="r-99u6WewFbq2nyN2_AF-3" value="" style="endArrow=open;endFill=1;endSize=12;html=1;rounded=0;exitX=0;exitY=0.5;exitDx=0;exitDy=0;entryX=1;entryY=0.5;entryDx=0;entryDy=0;" edge="1" parent="1" source="11wZY2oROPmIKHLb7UKP-43" target="11wZY2oROPmIKHLb7UKP-47">
          <mxGeometry width="160" relative="1" as="geometry">
            <mxPoint x="1050" y="-570" as="sourcePoint" />
            <mxPoint x="720" y="-500" as="targetPoint" />
          </mxGeometry>
        </mxCell>
        <mxCell id="r-99u6WewFbq2nyN2_AF-4" value="" style="endArrow=open;endFill=1;endSize=12;html=1;rounded=0;exitX=0.548;exitY=1.066;exitDx=0;exitDy=0;entryX=0.5;entryY=0;entryDx=0;entryDy=0;exitPerimeter=0;" edge="1" parent="1" source="11wZY2oROPmIKHLb7UKP-45" target="11wZY2oROPmIKHLb7UKP-70">
          <mxGeometry width="160" relative="1" as="geometry">
            <mxPoint x="1060" y="-560" as="sourcePoint" />
            <mxPoint x="1190" y="-575" as="targetPoint" />
          </mxGeometry>
        </mxCell>
        <mxCell id="r-99u6WewFbq2nyN2_AF-8" value="" style="endArrow=open;endFill=1;endSize=12;html=1;rounded=0;exitX=0.52;exitY=1.071;exitDx=0;exitDy=0;entryX=0.25;entryY=0;entryDx=0;entryDy=0;exitPerimeter=0;" edge="1" parent="1" source="11wZY2oROPmIKHLb7UKP-49" target="11wZY2oROPmIKHLb7UKP-70">
          <mxGeometry width="160" relative="1" as="geometry">
            <mxPoint x="1052" y="-548" as="sourcePoint" />
            <mxPoint x="1180" y="-385" as="targetPoint" />
          </mxGeometry>
        </mxCell>
        <mxCell id="r-99u6WewFbq2nyN2_AF-9" value="" style="endArrow=open;endFill=1;endSize=12;html=1;rounded=0;exitX=0.503;exitY=1.114;exitDx=0;exitDy=0;entryX=0.75;entryY=0;entryDx=0;entryDy=0;exitPerimeter=0;" edge="1" parent="1" source="11wZY2oROPmIKHLb7UKP-60" target="11wZY2oROPmIKHLb7UKP-70">
          <mxGeometry width="160" relative="1" as="geometry">
            <mxPoint x="1062" y="-538" as="sourcePoint" />
            <mxPoint x="1190" y="-375" as="targetPoint" />
          </mxGeometry>
        </mxCell>
        <mxCell id="r-99u6WewFbq2nyN2_AF-11" value="" style="endArrow=none;endFill=0;endSize=12;html=1;rounded=0;exitX=0.495;exitY=1.038;exitDx=0;exitDy=0;entryX=0.5;entryY=0;entryDx=0;entryDy=0;exitPerimeter=0;" edge="1" parent="1" source="11wZY2oROPmIKHLb7UKP-4" target="11wZY2oROPmIKHLb7UKP-27">
          <mxGeometry width="160" relative="1" as="geometry">
            <mxPoint x="1490" y="300" as="sourcePoint" />
            <mxPoint x="1383" y="496" as="targetPoint" />
          </mxGeometry>
        </mxCell>
        <mxCell id="r-99u6WewFbq2nyN2_AF-13" value="" style="endArrow=none;endFill=0;endSize=12;html=1;rounded=0;exitX=1;exitY=0.5;exitDx=0;exitDy=0;entryX=0;entryY=0.5;entryDx=0;entryDy=0;" edge="1" parent="1" source="11wZY2oROPmIKHLb7UKP-18" target="11wZY2oROPmIKHLb7UKP-28">
          <mxGeometry width="160" relative="1" as="geometry">
            <mxPoint x="1584" y="265" as="sourcePoint" />
            <mxPoint x="1361" y="518" as="targetPoint" />
          </mxGeometry>
        </mxCell>
        <mxCell id="r-99u6WewFbq2nyN2_AF-14" value="" style="endArrow=open;endFill=1;endSize=12;html=1;rounded=0;entryX=0.004;entryY=0.404;entryDx=0;entryDy=0;entryPerimeter=0;exitX=1;exitY=0.5;exitDx=0;exitDy=0;" edge="1" parent="1" source="11wZY2oROPmIKHLb7UKP-34" target="11wZY2oROPmIKHLb7UKP-38">
          <mxGeometry width="160" relative="1" as="geometry">
            <mxPoint x="800" y="120" as="sourcePoint" />
            <mxPoint x="1024" y="260" as="targetPoint" />
          </mxGeometry>
        </mxCell>
        <mxCell id="r-99u6WewFbq2nyN2_AF-16" value="" style="endArrow=open;endFill=1;endSize=12;html=1;rounded=0;entryX=0.5;entryY=0;entryDx=0;entryDy=0;exitX=0.462;exitY=1.01;exitDx=0;exitDy=0;exitPerimeter=0;" edge="1" parent="1" source="11wZY2oROPmIKHLb7UKP-73" target="11wZY2oROPmIKHLb7UKP-35">
          <mxGeometry width="160" relative="1" as="geometry">
            <mxPoint x="1200" y="-120" as="sourcePoint" />
            <mxPoint x="1068" y="-330" as="targetPoint" />
          </mxGeometry>
        </mxCell>
        <mxCell id="r-99u6WewFbq2nyN2_AF-17" value="" style="endArrow=open;endFill=1;endSize=12;html=1;rounded=0;entryX=0.25;entryY=0;entryDx=0;entryDy=0;exitX=1;exitY=0.5;exitDx=0;exitDy=0;" edge="1" parent="1" source="11wZY2oROPmIKHLb7UKP-73" target="11wZY2oROPmIKHLb7UKP-1">
          <mxGeometry width="160" relative="1" as="geometry">
            <mxPoint x="1134" y="-157" as="sourcePoint" />
            <mxPoint x="1265" y="70" as="targetPoint" />
          </mxGeometry>
        </mxCell>
        <mxCell id="r-99u6WewFbq2nyN2_AF-18" value="" style="endArrow=open;endSize=12;dashed=1;html=1;rounded=0;exitX=0;exitY=0.5;exitDx=0;exitDy=0;entryX=0.5;entryY=0;entryDx=0;entryDy=0;" edge="1" parent="1" source="11wZY2oROPmIKHLb7UKP-73" target="11wZY2oROPmIKHLb7UKP-31">
          <mxGeometry width="160" relative="1" as="geometry">
            <mxPoint x="1300" y="130" as="sourcePoint" />
            <mxPoint x="1460" y="130" as="targetPoint" />
          </mxGeometry>
        </mxCell>
        <mxCell id="r-99u6WewFbq2nyN2_AF-19" value="" style="endArrow=open;endFill=1;endSize=12;html=1;rounded=0;entryX=-0.003;entryY=0.787;entryDx=0;entryDy=0;entryPerimeter=0;exitX=1;exitY=0.5;exitDx=0;exitDy=0;" edge="1" parent="1" source="11wZY2oROPmIKHLb7UKP-77" target="11wZY2oROPmIKHLb7UKP-38">
          <mxGeometry width="160" relative="1" as="geometry">
            <mxPoint x="1550" y="-190" as="sourcePoint" />
            <mxPoint x="1265" y="70" as="targetPoint" />
            <Array as="points">
              <mxPoint x="1700" y="-231" />
              <mxPoint x="1700" y="580" />
              <mxPoint x="600" y="580" />
              <mxPoint x="600" y="168" />
            </Array>
          </mxGeometry>
        </mxCell>
        <mxCell id="r-99u6WewFbq2nyN2_AF-20" value="" style="endArrow=open;endSize=12;dashed=1;html=1;rounded=0;entryX=0.658;entryY=0.011;entryDx=0;entryDy=0;entryPerimeter=0;exitX=0.252;exitY=1.045;exitDx=0;exitDy=0;exitPerimeter=0;" edge="1" parent="1" source="11wZY2oROPmIKHLb7UKP-77" target="11wZY2oROPmIKHLb7UKP-1">
          <mxGeometry width="160" relative="1" as="geometry">
            <mxPoint x="1292" y="-190" as="sourcePoint" />
            <mxPoint x="1615" y="680" as="targetPoint" />
          </mxGeometry>
        </mxCell>
        <mxCell id="r-99u6WewFbq2nyN2_AF-21" value="" style="endArrow=open;endSize=12;dashed=1;html=1;rounded=0;exitX=0.48;exitY=1.03;exitDx=0;exitDy=0;exitPerimeter=0;entryX=0.46;entryY=1.027;entryDx=0;entryDy=0;entryPerimeter=0;" edge="1" parent="1" source="11wZY2oROPmIKHLb7UKP-77" target="11wZY2oROPmIKHLb7UKP-20">
          <mxGeometry width="160" relative="1" as="geometry">
            <mxPoint x="1661" y="-21" as="sourcePoint" />
            <mxPoint x="1628" y="70" as="targetPoint" />
            <Array as="points">
              <mxPoint x="1350" y="-150" />
              <mxPoint x="1670" y="-150" />
              <mxPoint x="1670" y="550" />
              <mxPoint x="968" y="550" />
            </Array>
          </mxGeometry>
        </mxCell>
        <mxCell id="r-99u6WewFbq2nyN2_AF-23" value="1" style="text;html=1;align=center;verticalAlign=middle;resizable=0;points=[];autosize=1;strokeColor=none;fillColor=none;" vertex="1" parent="1">
          <mxGeometry x="840" y="-604" width="30" height="30" as="geometry" />
        </mxCell>
        <mxCell id="r-99u6WewFbq2nyN2_AF-24" value="1" style="text;html=1;align=center;verticalAlign=middle;resizable=0;points=[];autosize=1;strokeColor=none;fillColor=none;" vertex="1" parent="1">
          <mxGeometry x="890" y="-603.25" width="30" height="30" as="geometry" />
        </mxCell>
        <mxCell id="r-99u6WewFbq2nyN2_AF-25" value="1" style="text;html=1;align=center;verticalAlign=middle;resizable=0;points=[];autosize=1;strokeColor=none;fillColor=none;" vertex="1" parent="1">
          <mxGeometry x="1030" y="-603.25" width="30" height="30" as="geometry" />
        </mxCell>
        <mxCell id="r-99u6WewFbq2nyN2_AF-26" value="1" style="text;html=1;align=center;verticalAlign=middle;resizable=0;points=[];autosize=1;strokeColor=none;fillColor=none;" vertex="1" parent="1">
          <mxGeometry x="1090" y="-605.25" width="30" height="30" as="geometry" />
        </mxCell>
        <mxCell id="r-99u6WewFbq2nyN2_AF-27" value="1" style="text;html=1;align=center;verticalAlign=middle;resizable=0;points=[];autosize=1;strokeColor=none;fillColor=none;" vertex="1" parent="1">
          <mxGeometry x="973" y="-507" width="30" height="30" as="geometry" />
        </mxCell>
        <mxCell id="r-99u6WewFbq2nyN2_AF-28" value="1" style="text;html=1;align=center;verticalAlign=middle;resizable=0;points=[];autosize=1;strokeColor=none;fillColor=none;" vertex="1" parent="1">
          <mxGeometry x="979" y="-432" width="30" height="30" as="geometry" />
        </mxCell>
        <mxCell id="r-99u6WewFbq2nyN2_AF-29" value="1" style="text;html=1;align=center;verticalAlign=middle;resizable=0;points=[];autosize=1;strokeColor=none;fillColor=none;" vertex="1" parent="1">
          <mxGeometry x="765" y="-540" width="30" height="30" as="geometry" />
        </mxCell>
        <mxCell id="r-99u6WewFbq2nyN2_AF-30" value="1" style="text;html=1;align=center;verticalAlign=middle;resizable=0;points=[];autosize=1;strokeColor=none;fillColor=none;" vertex="1" parent="1">
          <mxGeometry x="887" y="-431" width="30" height="30" as="geometry" />
        </mxCell>
        <mxCell id="r-99u6WewFbq2nyN2_AF-31" value="1" style="text;html=1;align=center;verticalAlign=middle;resizable=0;points=[];autosize=1;strokeColor=none;fillColor=none;" vertex="1" parent="1">
          <mxGeometry x="1155" y="-544" width="30" height="30" as="geometry" />
        </mxCell>
        <mxCell id="r-99u6WewFbq2nyN2_AF-32" value="1" style="text;html=1;align=center;verticalAlign=middle;resizable=0;points=[];autosize=1;strokeColor=none;fillColor=none;" vertex="1" parent="1">
          <mxGeometry x="1051" y="-432" width="30" height="30" as="geometry" />
        </mxCell>
        <mxCell id="r-99u6WewFbq2nyN2_AF-33" value="1" style="text;html=1;align=center;verticalAlign=middle;resizable=0;points=[];autosize=1;strokeColor=none;fillColor=none;" vertex="1" parent="1">
          <mxGeometry x="840" y="-415" width="30" height="30" as="geometry" />
        </mxCell>
        <mxCell id="r-99u6WewFbq2nyN2_AF-34" value="1" style="text;html=1;align=center;verticalAlign=middle;resizable=0;points=[];autosize=1;strokeColor=none;fillColor=none;" vertex="1" parent="1">
          <mxGeometry x="840" y="-383" width="30" height="30" as="geometry" />
        </mxCell>
        <mxCell id="r-99u6WewFbq2nyN2_AF-35" value="&lt;font style=&quot;font-size: 24px;&quot;&gt;*&lt;/font&gt;" style="text;html=1;align=center;verticalAlign=middle;resizable=0;points=[];autosize=1;strokeColor=none;fillColor=none;" vertex="1" parent="1">
          <mxGeometry x="1257" y="126" width="30" height="40" as="geometry" />
        </mxCell>
        <mxCell id="r-99u6WewFbq2nyN2_AF-36" value="&lt;font style=&quot;font-size: 24px;&quot;&gt;*&lt;/font&gt;" style="text;html=1;align=center;verticalAlign=middle;resizable=0;points=[];autosize=1;strokeColor=none;fillColor=none;" vertex="1" parent="1">
          <mxGeometry x="1258" y="254" width="30" height="40" as="geometry" />
        </mxCell>
        <mxCell id="r-99u6WewFbq2nyN2_AF-37" value="&lt;font style=&quot;font-size: 24px;&quot;&gt;*&lt;/font&gt;" style="text;html=1;align=center;verticalAlign=middle;resizable=0;points=[];autosize=1;strokeColor=none;fillColor=none;" vertex="1" parent="1">
          <mxGeometry x="1119" y="328" width="30" height="40" as="geometry" />
        </mxCell>
        <mxCell id="r-99u6WewFbq2nyN2_AF-38" value="1" style="text;html=1;align=center;verticalAlign=middle;resizable=0;points=[];autosize=1;strokeColor=none;fillColor=none;" vertex="1" parent="1">
          <mxGeometry x="1051" y="336" width="30" height="30" as="geometry" />
        </mxCell>
        <mxCell id="r-99u6WewFbq2nyN2_AF-39" value="&lt;font style=&quot;font-size: 24px;&quot;&gt;*&lt;/font&gt;" style="text;html=1;align=center;verticalAlign=middle;resizable=0;points=[];autosize=1;strokeColor=none;fillColor=none;" vertex="1" parent="1">
          <mxGeometry x="972" y="-84" width="30" height="40" as="geometry" />
        </mxCell>
        <mxCell id="r-99u6WewFbq2nyN2_AF-41" value="1" style="text;html=1;align=center;verticalAlign=middle;resizable=0;points=[];autosize=1;strokeColor=none;fillColor=none;" vertex="1" parent="1">
          <mxGeometry x="968" y="-154" width="30" height="30" as="geometry" />
        </mxCell>
        <mxCell id="r-99u6WewFbq2nyN2_AF-42" value="1" style="text;html=1;align=center;verticalAlign=middle;resizable=0;points=[];autosize=1;strokeColor=none;fillColor=none;" vertex="1" parent="1">
          <mxGeometry x="1100" y="-230" width="30" height="30" as="geometry" />
        </mxCell>
        <mxCell id="r-99u6WewFbq2nyN2_AF-43" value="1" style="text;html=1;align=center;verticalAlign=middle;resizable=0;points=[];autosize=1;strokeColor=none;fillColor=none;" vertex="1" parent="1">
          <mxGeometry x="839" y="-231" width="30" height="30" as="geometry" />
        </mxCell>
        <mxCell id="r-99u6WewFbq2nyN2_AF-45" value="1" style="text;html=1;align=center;verticalAlign=middle;resizable=0;points=[];autosize=1;strokeColor=none;fillColor=none;" vertex="1" parent="1">
          <mxGeometry x="1212" y="-82" width="30" height="30" as="geometry" />
        </mxCell>
        <mxCell id="r-99u6WewFbq2nyN2_AF-46" value="1" style="text;html=1;align=center;verticalAlign=middle;resizable=0;points=[];autosize=1;strokeColor=none;fillColor=none;" vertex="1" parent="1">
          <mxGeometry x="636" y="-82" width="30" height="30" as="geometry" />
        </mxCell>
        <mxCell id="r-99u6WewFbq2nyN2_AF-47" value="1" style="text;html=1;align=center;verticalAlign=middle;resizable=0;points=[];autosize=1;strokeColor=none;fillColor=none;" vertex="1" parent="1">
          <mxGeometry x="761" y="62" width="30" height="30" as="geometry" />
        </mxCell>
        <mxCell id="r-99u6WewFbq2nyN2_AF-48" value="&lt;font style=&quot;font-size: 24px;&quot;&gt;*&lt;/font&gt;" style="text;html=1;align=center;verticalAlign=middle;resizable=0;points=[];autosize=1;strokeColor=none;fillColor=none;" vertex="1" parent="1">
          <mxGeometry x="868" y="82" width="30" height="40" as="geometry" />
        </mxCell>
        <mxCell id="r-99u6WewFbq2nyN2_AF-49" value="&lt;font style=&quot;font-size: 24px;&quot;&gt;*&lt;/font&gt;" style="text;html=1;align=center;verticalAlign=middle;resizable=0;points=[];autosize=1;strokeColor=none;fillColor=none;" vertex="1" parent="1">
          <mxGeometry x="867" y="167" width="30" height="40" as="geometry" />
        </mxCell>
        <mxCell id="r-99u6WewFbq2nyN2_AF-50" value="1" style="text;html=1;align=center;verticalAlign=middle;resizable=0;points=[];autosize=1;strokeColor=none;fillColor=none;" vertex="1" parent="1">
          <mxGeometry x="1473" y="-233" width="30" height="30" as="geometry" />
        </mxCell>
        <mxCell id="r-99u6WewFbq2nyN2_AF-51" value="1" style="text;html=1;align=center;verticalAlign=middle;resizable=0;points=[];autosize=1;strokeColor=none;fillColor=none;" vertex="1" parent="1">
          <mxGeometry x="1343" y="-193" width="30" height="30" as="geometry" />
        </mxCell>
        <mxCell id="r-99u6WewFbq2nyN2_AF-52" value="1" style="text;html=1;align=center;verticalAlign=middle;resizable=0;points=[];autosize=1;strokeColor=none;fillColor=none;" vertex="1" parent="1">
          <mxGeometry x="940" y="506" width="30" height="30" as="geometry" />
        </mxCell>
        <mxCell id="r-99u6WewFbq2nyN2_AF-53" value="1" style="text;html=1;align=center;verticalAlign=middle;resizable=0;points=[];autosize=1;strokeColor=none;fillColor=none;" vertex="1" parent="1">
          <mxGeometry x="1286" y="-193" width="30" height="30" as="geometry" />
        </mxCell>
        <mxCell id="r-99u6WewFbq2nyN2_AF-54" value="1" style="text;html=1;align=center;verticalAlign=middle;resizable=0;points=[];autosize=1;strokeColor=none;fillColor=none;" vertex="1" parent="1">
          <mxGeometry x="1287" y="-81" width="30" height="30" as="geometry" />
        </mxCell>
      </root>
    </mxGraphModel>
  </diagram>
</mxfile>
